<svg id="svg" version="1.1" xmlns="http://www.w3.org/2000/svg" xmlns:xlink="http://www.w3.org/1999/xlink" width="400" height="299.6197718631179" viewBox="0, 0, 400,299.6197718631179"><g id="svgg"><path id="path0" d="M84.195 33.313 C 83.783 33.485,82.906 33.829,82.247 34.077 C 81.588 34.325,80.779 34.641,80.449 34.779 C 80.120 34.917,79.345 35.231,78.727 35.477 C 75.605 36.720,77.047 38.898,88.989 50.975 L 95.730 57.792 101.573 57.952 C 104.787 58.040,117.448 58.176,129.709 58.254 L 152.002 58.395 152.930 57.431 C 155.952 54.289,163.577 45.829,164.185 44.944 C 164.581 44.367,165.891 42.852,167.096 41.576 C 169.692 38.830,169.661 38.992,167.868 37.548 C 167.087 36.919,166.187 36.170,165.868 35.884 C 165.549 35.597,165.042 35.285,164.741 35.189 C 164.441 35.094,164.195 34.890,164.195 34.736 C 164.195 34.583,164.057 34.457,163.889 34.457 C 163.721 34.457,163.050 34.120,162.397 33.708 L 161.210 32.959 123.077 32.979 C 97.278 32.993,84.702 33.101,84.195 33.313 M227.070 43.192 C 224.645 45.809,222.851 49.629,222.308 53.333 C 220.710 64.233,218.462 83.691,216.942 99.775 C 216.794 101.341,216.507 105.655,216.305 109.363 C 215.875 117.228,215.597 116.181,219.594 121.743 L 222.109 125.243 223.519 125.243 C 224.931 125.243,226.162 124.733,228.861 123.030 C 229.543 122.599,230.174 122.247,230.265 122.247 C 230.355 122.247,231.645 121.371,233.131 120.300 C 234.617 119.228,235.950 118.352,236.094 118.352 C 236.237 118.352,236.400 118.239,236.454 118.101 C 236.509 117.963,237.158 117.416,237.896 116.886 C 240.334 115.133,243.215 112.527,243.967 111.393 C 244.778 110.169,245.349 107.035,246.300 98.577 C 246.540 96.442,246.909 93.480,247.907 85.693 C 248.149 83.798,248.561 80.360,248.821 78.052 C 249.082 75.745,249.429 72.779,249.592 71.461 C 249.755 70.142,249.888 67.396,249.888 65.358 L 249.888 61.652 248.940 60.564 C 245.903 57.077,238.365 49.490,236.704 48.247 C 235.633 47.445,234.352 46.357,233.858 45.829 C 233.123 45.044,230.964 43.503,228.670 42.125 C 228.408 41.968,227.873 42.325,227.070 43.192 M169.692 47.375 C 162.425 54.529,156.668 60.678,155.977 62.022 C 155.597 62.761,155.070 65.925,154.155 72.959 C 153.897 74.936,153.554 77.498,153.391 78.652 C 152.887 82.228,151.891 90.205,151.595 93.034 C 151.440 94.517,151.227 96.135,151.122 96.629 C 151.016 97.124,150.826 98.607,150.698 99.925 C 150.570 101.243,150.297 103.739,150.092 105.470 C 149.524 110.255,149.555 110.330,153.703 114.440 C 163.881 124.523,164.334 124.694,170.011 120.619 C 171.151 119.801,172.413 118.825,172.818 118.451 C 173.222 118.076,174.136 117.327,174.848 116.787 C 176.623 115.441,176.835 114.697,178.122 105.318 C 178.732 100.869,179.486 95.408,179.798 93.184 C 180.110 90.959,180.499 87.925,180.662 86.442 C 180.826 84.959,181.171 81.993,181.430 79.850 C 181.688 77.708,182.023 74.674,182.174 73.109 C 182.324 71.543,182.643 68.442,182.882 66.217 C 184.213 53.812,184.190 51.617,182.723 50.621 C 182.441 50.430,179.181 45.520,179.166 45.264 C 179.112 44.332,177.836 43.655,175.866 43.514 L 173.765 43.364 169.692 47.375 M335.566 47.364 C 326.122 55.625,322.049 60.419,321.074 64.419 C 320.055 68.602,318.182 79.731,317.300 86.844 C 317.149 88.054,316.957 89.267,316.872 89.541 C 316.788 89.814,316.587 91.116,316.427 92.434 C 316.266 93.753,315.772 97.596,315.327 100.974 C 314.883 104.352,314.461 108.823,314.390 110.910 L 314.261 114.703 315.369 115.930 C 318.362 119.243,326.569 126.142,327.517 126.142 C 327.667 126.142,327.790 126.277,327.790 126.442 C 327.790 126.611,328.641 126.742,329.744 126.742 C 331.741 126.742,332.560 126.395,335.027 124.504 C 335.464 124.169,336.263 123.558,336.803 123.146 C 341.363 119.667,342.657 114.633,345.774 88.240 C 346.049 85.914,346.386 83.282,346.963 78.951 C 347.116 77.798,347.452 75.034,347.708 72.809 C 347.965 70.584,348.305 67.753,348.464 66.517 C 348.624 65.281,348.823 62.787,348.908 60.974 C 348.992 59.161,349.141 56.657,349.239 55.409 C 349.456 52.635,349.103 51.654,347.072 49.388 C 346.272 48.495,345.098 47.164,344.463 46.429 L 343.308 45.094 340.853 44.990 L 338.397 44.887 335.566 47.364 M85.094 114.287 C 79.006 115.981,67.847 125.650,68.738 128.458 C 68.914 129.012,78.364 137.675,80.196 138.962 L 81.141 139.625 113.055 139.625 C 130.608 139.625,145.014 139.524,145.069 139.401 C 145.124 139.277,145.708 138.805,146.367 138.352 C 147.026 137.899,148.037 137.108,148.614 136.593 C 149.191 136.079,150.270 135.169,151.011 134.571 C 151.753 133.973,152.427 133.414,152.509 133.329 C 152.680 133.154,156.205 130.119,157.228 129.267 C 158.113 128.531,158.121 126.857,157.248 125.335 C 155.348 122.022,148.816 115.317,146.956 114.771 C 144.507 114.052,87.540 113.606,85.094 114.287 M244.367 117.370 C 243.031 117.711,230.215 127.566,228.848 129.304 C 227.873 130.544,228.458 133.092,230.033 134.467 C 230.654 135.008,231.970 136.179,232.959 137.068 C 233.948 137.957,235.074 138.957,235.461 139.291 C 235.849 139.625,237.167 140.798,238.390 141.897 C 239.614 142.997,240.915 144.132,241.281 144.419 C 241.904 144.909,244.105 144.950,275.056 145.056 L 308.165 145.169 309.029 144.419 C 309.504 144.007,310.043 143.533,310.227 143.365 C 310.411 143.197,311.843 142.066,313.408 140.851 C 314.974 139.637,317.199 137.731,318.352 136.617 C 319.506 135.502,320.911 134.194,321.474 133.708 C 323.915 131.607,322.309 128.561,314.607 120.679 L 311.161 117.153 278.052 117.188 C 259.843 117.207,244.684 117.289,244.367 117.370 M57.191 134.607 L 54.329 137.378 53.832 139.925 C 53.401 142.130,52.931 145.446,51.539 156.105 C 51.377 157.341,51.044 159.835,50.798 161.648 C 49.823 168.844,49.414 171.999,48.975 175.730 C 48.723 177.873,48.313 181.311,48.064 183.371 C 47.814 185.431,47.491 188.464,47.346 190.112 C 47.200 191.760,46.935 194.592,46.757 196.404 C 45.968 204.455,46.734 210.544,48.831 212.884 C 49.126 213.213,49.602 213.955,49.887 214.532 C 50.516 215.804,51.807 217.228,52.330 217.228 C 54.214 217.228,60.731 212.174,67.968 205.100 C 70.332 202.790,72.372 200.832,72.500 200.749 C 73.487 200.115,74.307 198.160,74.309 196.438 C 74.311 195.431,74.441 193.798,74.600 192.809 C 74.759 191.820,75.023 189.663,75.188 188.015 C 75.353 186.367,75.701 183.064,75.962 180.674 C 76.224 178.285,76.554 175.116,76.697 173.633 C 77.831 161.883,79.270 147.881,79.616 145.250 C 79.744 144.273,79.641 144.031,78.799 143.323 C 78.270 142.877,77.683 142.369,77.495 142.193 C 77.307 142.017,76.277 141.139,75.206 140.243 C 74.135 139.347,73.124 138.464,72.959 138.282 C 72.794 138.099,71.513 137.012,70.112 135.866 C 68.712 134.720,67.521 133.682,67.466 133.558 C 67.411 133.434,67.198 133.333,66.994 133.333 C 66.789 133.333,66.305 132.996,65.918 132.584 C 65.273 131.898,64.999 131.835,62.633 131.835 L 60.052 131.835 57.191 134.607 M326.980 135.378 C 324.235 137.027,322.205 138.693,316.181 144.237 C 311.295 148.733,311.572 148.193,310.861 154.607 C 310.596 156.996,309.985 162.187,309.503 166.142 C 309.021 170.097,308.152 177.446,307.571 182.472 C 306.031 195.803,305.954 196.463,305.622 199.224 C 305.455 200.609,305.318 203.029,305.318 204.600 L 305.318 207.457 309.363 211.423 C 320.140 221.991,324.993 225.137,327.790 223.371 C 328.443 222.959,329.088 222.622,329.224 222.622 C 329.732 222.622,332.182 220.042,332.497 219.176 C 333.236 217.142,334.426 210.337,335.275 203.296 C 335.771 199.176,336.311 194.794,336.475 193.558 C 336.763 191.382,338.139 179.051,339.016 170.787 C 340.246 159.203,341.030 148.708,340.918 145.333 L 340.824 142.501 337.507 139.790 C 335.683 138.299,333.673 136.674,333.041 136.180 C 332.408 135.685,331.522 134.978,331.071 134.607 C 329.950 133.685,329.725 133.728,326.980 135.378 M76.677 204.000 C 75.911 204.192,62.350 217.716,61.429 219.207 C 61.185 219.602,60.885 219.925,60.762 219.925 C 60.640 219.925,60.341 220.309,60.098 220.779 C 59.548 221.843,59.914 222.472,61.864 223.814 C 62.585 224.311,63.355 224.894,63.573 225.109 C 65.218 226.735,72.914 227.082,107.865 227.103 C 133.332 227.118,149.027 226.742,150.712 226.076 C 151.288 225.848,152.333 225.423,153.034 225.132 L 154.307 224.604 154.307 222.689 C 154.307 220.627,153.636 219.478,150.262 215.768 C 149.603 215.043,148.929 214.300,148.764 214.116 C 145.107 210.051,143.002 207.744,141.368 206.015 L 139.365 203.895 108.409 203.850 C 91.383 203.826,77.104 203.893,76.677 204.000 " stroke="none" fill="#f5e5a9" fill-rule="evenodd"></path><path id="path1" d="M83.290 32.494 C 77.720 33.207,75.200 35.699,76.826 38.886 C 78.241 41.660,93.580 57.398,95.753 58.306 C 96.901 58.786,120.620 59.293,142.947 59.316 L 152.411 59.326 154.333 57.303 C 156.436 55.091,160.220 50.976,166.115 44.494 C 168.213 42.187,170.155 39.845,170.431 39.290 L 170.932 38.280 169.838 37.342 C 168.472 36.172,162.895 32.854,161.528 32.399 C 160.031 31.901,87.237 31.989,83.290 32.494 M162.397 33.708 C 163.050 34.120,163.721 34.457,163.889 34.457 C 164.057 34.457,164.195 34.583,164.195 34.736 C 164.195 34.890,164.441 35.094,164.741 35.189 C 165.042 35.285,165.549 35.597,165.868 35.884 C 166.187 36.170,167.087 36.919,167.868 37.548 C 169.661 38.992,169.692 38.830,167.096 41.576 C 165.891 42.852,164.581 44.367,164.185 44.944 C 163.577 45.829,155.952 54.289,152.930 57.431 L 152.002 58.395 129.709 58.254 C 117.448 58.176,104.787 58.040,101.573 57.952 L 95.730 57.792 88.989 50.975 C 77.047 38.898,75.605 36.720,78.727 35.477 C 79.345 35.231,80.120 34.917,80.449 34.779 C 80.779 34.641,81.588 34.325,82.247 34.077 C 82.906 33.829,83.783 33.485,84.195 33.313 C 84.702 33.101,97.278 32.993,123.077 32.979 L 161.210 32.959 162.397 33.708 M227.926 41.093 C 227.418 41.377,224.689 44.704,223.755 46.179 C 223.212 47.036,222.424 49.834,221.994 52.434 C 220.924 58.892,219.043 73.706,217.676 86.442 C 216.245 99.784,215.780 104.647,215.571 108.464 C 215.477 110.195,215.268 112.450,215.108 113.475 C 214.709 116.028,216.764 120.077,220.775 124.644 L 221.959 125.993 225.062 125.993 L 228.165 125.993 228.065 129.139 C 227.866 135.464,227.323 134.530,234.683 140.524 C 235.189 140.936,236.626 142.130,237.876 143.177 C 239.127 144.224,240.584 145.269,241.114 145.499 C 242.360 146.040,265.126 146.084,280.980 145.576 C 289.969 145.287,292.067 145.297,293.115 145.629 C 294.009 145.913,296.720 146.056,302.322 146.116 C 306.689 146.162,310.381 146.204,310.525 146.209 C 310.670 146.213,310.705 146.858,310.603 147.640 C 310.501 148.423,310.283 150.345,310.120 151.910 C 309.855 154.453,309.480 157.660,308.613 164.794 C 308.358 166.900,307.354 175.424,306.355 183.970 C 304.671 198.384,304.144 206.426,304.814 207.449 C 305.598 208.645,314.604 217.298,319.850 221.895 C 321.333 223.194,322.614 224.341,322.697 224.444 C 324.652 226.869,331.478 223.699,333.334 219.503 C 334.298 217.322,334.504 216.084,336.178 202.397 C 337.004 195.640,337.814 189.034,337.977 187.715 C 338.141 186.397,338.553 182.824,338.894 179.775 C 339.234 176.727,339.698 172.614,339.925 170.637 C 340.151 168.659,340.678 163.940,341.094 160.150 C 341.511 156.360,342.072 151.303,342.340 148.914 C 343.052 142.585,343.566 143.574,336.629 137.925 C 330.176 132.670,330.215 132.689,327.640 133.506 C 324.226 134.590,324.368 134.570,323.975 134.035 C 323.772 133.759,323.710 133.386,323.837 133.208 C 323.965 133.030,324.320 132.114,324.626 131.173 L 325.183 129.461 323.989 127.877 C 321.278 124.280,321.903 124.255,326.104 127.789 C 327.691 129.125,328.622 129.713,328.950 129.589 C 329.828 129.256,337.166 124.400,339.925 122.326 L 342.622 120.300 342.838 118.652 C 342.957 117.745,343.182 115.993,343.339 114.757 C 343.496 113.521,344.248 107.655,345.010 101.723 C 346.542 89.792,346.702 88.493,348.426 73.858 C 351.231 50.054,351.310 51.399,346.846 46.794 C 341.397 41.171,339.961 41.721,327.474 54.213 C 321.024 60.667,320.929 60.821,319.868 66.667 C 318.596 73.678,314.344 102.317,313.190 111.657 C 312.859 114.336,312.976 114.641,315.404 117.414 C 317.675 120.008,317.486 120.540,314.948 118.695 C 314.019 118.019,312.449 116.958,311.461 116.336 L 309.663 115.206 277.603 115.056 L 245.543 114.906 245.593 113.408 C 245.621 112.584,245.786 110.966,245.960 109.813 C 246.134 108.659,246.489 105.963,246.749 103.820 C 247.008 101.678,247.417 98.375,247.657 96.479 C 250.677 72.654,251.294 62.155,249.800 60.034 C 245.419 53.812,229.629 40.139,227.926 41.093 M231.011 43.615 C 232.082 44.304,233.363 45.301,233.858 45.829 C 234.352 46.357,235.633 47.445,236.704 48.247 C 238.365 49.490,245.903 57.077,248.940 60.564 L 249.888 61.652 249.888 65.358 C 249.888 67.396,249.755 70.142,249.592 71.461 C 249.429 72.779,249.082 75.745,248.821 78.052 C 248.561 80.360,248.149 83.798,247.907 85.693 C 246.909 93.480,246.540 96.442,246.300 98.577 C 245.349 107.035,244.778 110.169,243.967 111.393 C 243.215 112.527,240.334 115.133,237.896 116.886 C 237.158 117.416,236.509 117.963,236.454 118.101 C 236.400 118.239,236.237 118.352,236.094 118.352 C 235.950 118.352,234.617 119.228,233.131 120.300 C 231.645 121.371,230.355 122.247,230.265 122.247 C 230.174 122.247,229.543 122.599,228.861 123.030 C 226.162 124.733,224.931 125.243,223.519 125.243 L 222.109 125.243 219.594 121.743 C 215.597 116.181,215.875 117.228,216.305 109.363 C 216.507 105.655,216.794 101.341,216.942 99.775 C 218.462 83.691,220.710 64.233,222.308 53.333 C 222.985 48.713,227.220 41.254,228.670 42.125 C 228.887 42.255,229.940 42.925,231.011 43.615 M172.967 42.938 C 172.600 43.142,168.469 47.047,163.787 51.616 L 155.274 59.923 154.938 61.797 C 154.752 62.827,154.192 67.109,153.693 71.311 C 153.194 75.513,152.463 81.648,152.068 84.944 C 151.674 88.240,151.137 92.891,150.875 95.281 C 150.614 97.670,150.268 100.450,150.106 101.458 C 149.945 102.466,149.832 103.949,149.855 104.754 L 149.897 106.217 150.141 104.569 C 150.276 103.663,150.519 101.626,150.682 100.042 C 150.845 98.458,151.055 96.840,151.149 96.447 C 151.242 96.053,151.444 94.517,151.598 93.034 C 151.888 90.235,152.877 82.302,153.391 78.652 C 153.554 77.498,153.897 74.936,154.155 72.959 C 155.070 65.925,155.597 62.761,155.977 62.022 C 156.668 60.678,162.425 54.529,169.692 47.375 L 173.765 43.364 175.866 43.514 C 177.836 43.655,179.112 44.332,179.166 45.264 C 179.181 45.520,182.441 50.430,182.723 50.621 C 184.190 51.617,184.213 53.812,182.882 66.217 C 182.643 68.442,182.324 71.543,182.174 73.109 C 182.023 74.674,181.688 77.708,181.430 79.850 C 181.171 81.993,180.826 84.959,180.662 86.442 C 180.499 87.925,180.110 90.959,179.798 93.184 C 179.486 95.408,178.732 100.869,178.122 105.318 C 176.835 114.697,176.623 115.441,174.848 116.787 C 174.136 117.327,173.222 118.076,172.818 118.451 C 172.413 118.825,171.151 119.801,170.011 120.619 C 164.347 124.685,163.955 124.539,153.922 114.663 C 150.110 110.911,149.832 110.460,149.773 107.921 L 149.733 106.217 149.507 107.715 C 149.246 109.438,149.364 110.200,150.173 112.014 C 151.215 114.353,152.281 114.290,124.195 113.530 C 117.438 113.347,105.503 113.245,97.671 113.303 L 83.432 113.408 80.051 115.783 C 77.150 117.820,70.677 122.856,69.623 123.897 C 67.755 125.740,67.357 129.822,68.918 131.136 C 76.518 137.534,79.661 139.972,80.652 140.239 C 82.183 140.651,146.177 140.493,146.849 140.075 C 147.115 139.910,149.339 137.864,151.793 135.528 C 154.247 133.192,156.613 131.001,157.050 130.659 C 157.488 130.318,158.409 129.367,159.096 128.545 L 160.347 127.052 159.724 125.387 C 159.381 124.472,159.101 123.593,159.101 123.434 C 159.101 122.989,161.210 123.093,163.006 123.626 C 166.976 124.805,168.395 124.228,173.765 119.254 C 177.251 116.025,177.307 115.946,177.712 113.619 C 178.600 108.514,178.897 106.578,179.323 103.126 C 179.580 101.036,179.919 98.449,180.075 97.378 C 180.231 96.307,180.565 93.678,180.817 91.536 C 181.070 89.393,181.408 86.629,181.569 85.393 C 181.731 84.157,182.067 81.326,182.317 79.101 C 182.568 76.876,182.907 73.910,183.072 72.509 C 183.811 66.238,184.327 61.303,184.591 57.978 C 184.749 56.000,184.952 53.978,185.044 53.483 C 185.428 51.410,179.573 43.181,177.405 42.747 C 175.854 42.437,173.702 42.529,172.967 42.938 M344.463 46.429 C 345.098 47.164,346.272 48.495,347.072 49.388 C 349.103 51.654,349.456 52.635,349.239 55.409 C 349.141 56.657,348.992 59.161,348.908 60.974 C 348.823 62.787,348.624 65.281,348.464 66.517 C 348.305 67.753,347.965 70.584,347.708 72.809 C 347.452 75.034,347.116 77.798,346.963 78.951 C 346.386 83.282,346.049 85.914,345.774 88.240 C 342.657 114.633,341.363 119.667,336.803 123.146 C 336.263 123.558,335.464 124.169,335.027 124.504 C 332.560 126.395,331.741 126.742,329.744 126.742 C 328.641 126.742,327.790 126.611,327.790 126.442 C 327.790 126.277,327.667 126.142,327.517 126.142 C 326.569 126.142,318.362 119.243,315.369 115.930 L 314.261 114.703 314.390 110.910 C 314.461 108.823,314.883 104.352,315.327 100.974 C 315.772 97.596,316.266 93.753,316.427 92.434 C 316.587 91.116,316.788 89.814,316.872 89.541 C 316.957 89.267,317.149 88.054,317.300 86.844 C 318.182 79.731,320.055 68.602,321.074 64.419 C 322.049 60.419,326.122 55.625,335.566 47.364 L 338.397 44.887 340.853 44.990 L 343.308 45.094 344.463 46.429 M125.993 114.155 C 148.760 114.462,147.269 114.272,150.356 117.260 C 156.804 123.504,159.175 127.646,157.228 129.267 C 156.205 130.119,152.680 133.154,152.509 133.329 C 152.427 133.414,151.753 133.973,151.011 134.571 C 150.270 135.169,149.191 136.079,148.614 136.593 C 148.037 137.108,147.026 137.899,146.367 138.352 C 145.708 138.805,145.124 139.277,145.069 139.401 C 145.014 139.524,130.608 139.625,113.055 139.625 L 81.141 139.625 80.196 138.962 C 78.364 137.675,68.914 129.012,68.738 128.458 C 67.847 125.650,79.006 115.981,85.094 114.287 C 86.766 113.821,98.456 113.784,125.993 114.155 M314.607 120.679 C 322.309 128.561,323.915 131.607,321.474 133.708 C 320.911 134.194,319.506 135.502,318.352 136.617 C 317.199 137.731,314.974 139.637,313.408 140.851 C 311.843 142.066,310.411 143.197,310.227 143.365 C 310.043 143.533,309.504 144.007,309.029 144.419 L 308.165 145.169 275.056 145.056 C 244.105 144.950,241.904 144.909,241.281 144.419 C 240.915 144.132,239.614 142.997,238.390 141.897 C 237.167 140.798,235.849 139.625,235.461 139.291 C 235.074 138.957,233.948 137.957,232.959 137.068 C 231.970 136.179,230.654 135.008,230.033 134.467 C 228.458 133.092,227.873 130.544,228.848 129.304 C 230.215 127.566,243.031 117.711,244.367 117.370 C 244.684 117.289,259.843 117.207,278.052 117.188 L 311.161 117.153 314.607 120.679 M61.873 130.702 C 55.071 132.977,53.553 135.670,51.859 148.464 C 51.357 152.255,50.811 156.300,50.646 157.453 C 50.146 160.948,47.401 183.372,46.592 190.562 C 44.700 207.397,44.824 205.328,45.567 207.583 C 46.750 211.179,50.097 217.218,51.247 217.834 C 51.953 218.212,54.270 218.212,55.263 217.835 C 56.208 217.475,62.434 211.859,70.045 204.500 C 71.916 202.690,73.540 201.140,73.653 201.054 C 74.942 200.077,74.958 199.988,76.247 186.667 C 77.033 178.549,78.567 163.752,79.089 159.251 C 79.242 157.933,79.523 155.371,79.713 153.558 C 79.902 151.745,80.247 149.016,80.478 147.494 C 80.710 145.971,80.899 144.528,80.899 144.287 C 80.899 143.917,74.713 138.495,70.111 134.831 C 69.386 134.255,68.382 133.429,67.880 132.997 C 65.190 130.683,63.667 130.101,61.873 130.702 M65.918 132.584 C 66.305 132.996,66.789 133.333,66.994 133.333 C 67.198 133.333,67.411 133.434,67.466 133.558 C 67.521 133.682,68.712 134.720,70.112 135.866 C 71.513 137.012,72.794 138.099,72.959 138.282 C 73.124 138.464,74.135 139.347,75.206 140.243 C 76.277 141.139,77.307 142.017,77.495 142.193 C 77.683 142.369,78.270 142.877,78.799 143.323 C 79.641 144.031,79.744 144.273,79.616 145.250 C 79.270 147.881,77.831 161.883,76.697 173.633 C 76.554 175.116,76.224 178.285,75.962 180.674 C 75.701 183.064,75.353 186.367,75.188 188.015 C 75.023 189.663,74.759 191.820,74.600 192.809 C 74.441 193.798,74.311 195.431,74.309 196.438 C 74.307 198.160,73.487 200.115,72.500 200.749 C 72.372 200.832,70.332 202.790,67.968 205.100 C 60.731 212.174,54.214 217.228,52.330 217.228 C 51.807 217.228,50.516 215.804,49.887 214.532 C 49.602 213.955,49.126 213.213,48.831 212.884 C 46.734 210.544,45.968 204.455,46.757 196.404 C 46.935 194.592,47.200 191.760,47.346 190.112 C 47.491 188.464,47.814 185.431,48.064 183.371 C 48.313 181.311,48.723 177.873,48.975 175.730 C 49.414 171.999,49.823 168.844,50.798 161.648 C 51.044 159.835,51.377 157.341,51.539 156.105 C 52.931 145.446,53.401 142.130,53.832 139.925 L 54.329 137.378 57.191 134.607 L 60.052 131.835 62.633 131.835 C 64.999 131.835,65.273 131.898,65.918 132.584 M331.071 134.607 C 331.522 134.978,332.408 135.685,333.041 136.180 C 333.673 136.674,335.683 138.299,337.507 139.790 L 340.824 142.501 340.918 145.333 C 341.030 148.708,340.246 159.203,339.016 170.787 C 338.139 179.051,336.763 191.382,336.475 193.558 C 336.311 194.794,335.771 199.176,335.275 203.296 C 334.426 210.337,333.236 217.142,332.497 219.176 C 332.182 220.042,329.732 222.622,329.224 222.622 C 329.088 222.622,328.443 222.959,327.790 223.371 C 324.993 225.137,320.140 221.991,309.363 211.423 L 305.318 207.457 305.318 204.600 C 305.318 203.029,305.455 200.609,305.622 199.224 C 305.954 196.463,306.031 195.803,307.571 182.472 C 308.152 177.446,309.021 170.097,309.503 166.142 C 309.985 162.187,310.596 156.996,310.861 154.607 C 311.572 148.193,311.295 148.733,316.181 144.237 C 322.205 138.693,324.235 137.027,326.980 135.378 C 329.725 133.728,329.950 133.685,331.071 134.607 M75.816 202.194 C 75.490 202.302,64.905 213.486,61.354 217.474 C 57.446 221.861,57.925 224.130,63.197 226.208 C 67.332 227.838,68.191 227.867,110.562 227.839 L 149.663 227.814 152.321 226.702 C 158.688 224.040,158.309 222.960,146.517 210.185 C 140.734 203.920,139.335 202.629,138.087 202.410 C 137.058 202.229,76.341 202.018,75.816 202.194 M141.368 206.015 C 143.002 207.744,145.107 210.051,148.764 214.116 C 148.929 214.300,149.603 215.043,150.262 215.768 C 153.636 219.478,154.307 220.627,154.307 222.689 L 154.307 224.604 153.034 225.132 C 152.333 225.423,151.288 225.848,150.712 226.076 C 149.027 226.742,133.332 227.118,107.865 227.103 C 72.914 227.082,65.218 226.735,63.573 225.109 C 63.355 224.894,62.585 224.311,61.864 223.814 C 59.914 222.472,59.548 221.843,60.098 220.779 C 60.341 220.309,60.640 219.925,60.762 219.925 C 60.885 219.925,61.185 219.602,61.429 219.207 C 62.350 217.716,75.911 204.192,76.677 204.000 C 77.104 203.893,91.383 203.826,108.409 203.850 L 139.365 203.895 141.368 206.015 " stroke="none" fill="#945e1e" fill-rule="evenodd"></path><path id="path2" d="M0.000 149.813 L 0.000 299.625 200.000 299.625 L 400.000 299.625 400.000 149.813 L 400.000 0.000 200.000 0.000 L 0.000 0.000 0.000 149.813 M166.038 33.791 C 171.420 36.465,171.212 36.228,171.140 39.599 C 171.068 42.990,171.080 43.005,173.008 41.961 L 174.607 41.096 176.599 41.819 C 179.324 42.808,179.906 43.242,181.938 45.799 C 185.163 49.858,185.948 51.988,185.468 55.383 C 185.290 56.645,185.015 59.161,184.857 60.974 C 183.874 72.226,183.631 74.926,183.220 79.101 C 182.969 81.655,182.639 85.441,182.486 87.514 C 182.334 89.587,182.133 91.610,182.041 92.009 C 181.948 92.408,181.734 94.082,181.566 95.730 C 181.205 99.260,181.036 100.267,179.806 106.217 C 178.151 114.219,177.933 115.197,177.670 115.805 C 177.528 116.135,177.134 117.038,176.795 117.813 C 176.273 119.005,174.609 120.749,173.994 120.749 C 173.813 120.749,169.876 123.417,169.588 123.735 C 168.271 125.186,165.419 125.793,164.008 124.921 C 162.717 124.123,162.025 124.269,161.761 125.395 C 159.928 133.219,160.008 133.034,158.486 133.034 C 156.893 133.034,154.265 134.728,150.485 138.192 L 147.711 140.735 144.970 140.929 C 143.463 141.036,129.333 141.124,113.569 141.124 C 91.097 141.124,84.805 141.204,84.428 141.498 C 83.409 142.293,81.497 148.395,80.906 152.739 C 80.755 153.849,80.415 156.307,80.149 158.202 C 79.883 160.097,79.545 162.727,79.396 164.045 C 79.248 165.363,78.914 168.330,78.655 170.637 C 78.396 172.944,78.057 176.382,77.902 178.277 C 77.748 180.172,77.485 183.004,77.318 184.569 C 77.151 186.135,77.012 190.535,77.009 194.347 L 77.004 201.278 77.678 201.459 C 78.049 201.558,92.049 201.642,108.789 201.644 L 139.226 201.648 145.400 207.865 C 157.461 220.011,156.861 219.177,156.649 223.488 L 156.554 225.403 153.260 227.084 L 149.965 228.764 107.717 228.836 C 74.523 228.893,65.330 228.829,64.821 228.537 C 60.810 226.232,57.228 223.107,57.228 221.912 C 57.228 221.393,58.763 219.018,59.487 218.417 C 61.939 216.382,60.669 216.014,57.473 217.833 C 54.109 219.748,53.611 219.854,51.984 219.004 C 49.849 217.889,47.231 213.713,44.833 207.599 L 44.053 205.611 44.496 202.206 C 44.740 200.334,45.082 197.588,45.258 196.105 C 45.433 194.622,45.764 191.925,45.993 190.112 C 46.851 183.335,47.077 181.489,48.235 171.835 C 48.887 166.397,49.554 161.071,49.717 160.000 C 49.879 158.929,50.087 157.378,50.177 156.554 C 52.215 138.036,53.795 133.469,58.876 131.415 C 62.048 130.133,62.035 130.137,64.120 129.753 C 67.150 129.195,68.092 128.285,66.948 127.021 C 66.519 126.547,66.563 126.409,67.472 125.356 C 69.110 123.460,68.866 123.665,78.652 115.948 C 82.973 112.540,81.231 112.858,96.929 112.611 C 104.509 112.492,116.037 112.251,122.547 112.075 C 129.056 111.900,136.986 111.757,140.170 111.758 C 143.863 111.760,146.194 111.639,146.611 111.424 C 147.983 110.720,148.829 109.375,149.011 107.609 C 149.106 106.679,149.400 104.030,149.663 101.723 C 149.926 99.416,150.264 96.382,150.415 94.981 C 150.565 93.581,150.907 90.547,151.176 88.240 C 151.444 85.933,151.772 82.966,151.904 81.648 C 152.249 78.195,152.777 73.585,153.104 71.161 C 153.260 70.007,153.476 67.968,153.583 66.630 L 153.779 64.196 152.016 62.406 C 149.719 60.073,149.013 60.023,110.262 59.468 C 93.101 59.222,95.971 60.304,85.787 50.248 C 74.141 38.748,73.027 36.417,77.749 33.426 L 80.142 31.910 89.434 31.746 C 94.545 31.656,112.884 31.588,130.187 31.596 L 161.648 31.610 166.038 33.791 M229.887 40.566 C 233.863 42.960,249.927 57.850,250.795 59.945 C 251.196 60.913,251.094 68.329,250.499 81.498 C 250.347 84.876,250.214 91.420,250.204 96.040 L 250.187 104.439 252.050 106.527 C 253.074 107.675,254.604 109.322,255.450 110.187 L 256.987 111.760 284.431 111.760 C 304.334 111.760,311.932 111.668,312.082 111.425 C 312.494 110.758,313.671 104.113,314.622 97.079 C 314.767 96.007,315.085 93.783,315.328 92.135 C 315.571 90.487,315.979 87.723,316.234 85.993 C 316.490 84.262,317.180 79.610,317.769 75.655 C 318.357 71.700,318.965 67.588,319.119 66.517 C 319.928 60.890,319.857 60.990,329.781 51.252 C 338.872 42.330,338.355 42.678,342.428 42.757 C 346.093 42.829,346.619 43.081,347.744 45.300 C 348.175 46.150,348.976 47.529,349.525 48.366 C 352.235 52.496,352.355 53.500,351.004 60.674 C 350.755 61.993,350.426 64.082,350.272 65.318 C 350.118 66.554,349.714 69.790,349.375 72.509 C 349.036 75.228,348.555 79.139,348.306 81.199 C 348.058 83.258,347.722 85.955,347.560 87.191 C 346.758 93.314,344.812 109.830,344.276 115.056 C 343.755 120.139,343.660 120.389,341.657 121.939 C 339.983 123.234,336.563 126.071,335.524 127.025 C 335.245 127.281,334.076 128.300,332.925 129.288 C 331.774 130.277,330.745 131.288,330.639 131.536 C 330.425 132.031,330.317 131.931,337.976 138.292 C 343.787 143.119,343.791 143.125,343.587 144.970 C 343.443 146.269,341.796 160.714,340.815 169.288 C 340.579 171.348,340.111 175.393,339.775 178.277 C 339.440 181.161,339.031 184.869,338.868 186.517 C 338.705 188.165,338.501 189.820,338.416 190.196 C 338.331 190.572,338.132 192.190,337.974 193.792 C 337.816 195.393,337.477 198.457,337.222 200.599 C 336.575 206.034,336.225 209.150,335.909 212.285 C 335.369 217.636,332.668 223.149,329.959 224.428 C 324.496 227.006,324.389 226.984,319.311 222.257 C 309.579 213.200,305.017 208.677,303.676 206.756 L 302.535 205.122 302.909 187.430 C 303.820 144.291,303.867 147.859,302.388 147.554 C 301.940 147.462,301.101 147.264,300.524 147.115 C 299.948 146.966,298.330 146.698,296.929 146.520 C 295.528 146.342,293.707 146.080,292.883 145.938 C 292.058 145.796,288.623 145.791,285.242 145.927 C 281.865 146.062,270.464 146.243,259.907 146.327 L 240.712 146.482 234.292 141.548 C 228.016 136.724,226.859 135.564,226.829 134.062 C 226.807 132.957,223.728 128.188,221.826 126.313 C 220.812 125.313,219.287 123.620,218.438 122.551 C 217.588 121.482,216.397 120.070,215.790 119.414 C 214.503 118.023,214.243 116.608,214.605 112.959 C 214.727 111.723,214.961 108.891,215.124 106.667 C 215.529 101.155,215.946 96.342,216.344 92.584 C 216.872 87.605,218.386 74.789,218.893 71.011 C 219.147 69.116,219.472 66.622,219.615 65.468 C 219.758 64.315,220.095 61.955,220.365 60.225 C 220.635 58.494,220.975 56.202,221.120 55.131 C 222.155 47.505,222.381 46.816,225.001 43.289 C 225.733 42.304,226.650 41.060,227.039 40.524 C 227.907 39.329,227.829 39.327,229.887 40.566 " stroke="none" fill="#040404" fill-rule="evenodd"></path><path id="path3" d="M113.933 31.685 C 122.461 31.730,136.416 31.730,144.944 31.685 C 153.472 31.641,146.494 31.605,129.438 31.605 C 112.382 31.605,105.404 31.641,113.933 31.685 M80.118 32.053 C 72.470 35.144,73.326 37.938,85.662 50.129 C 93.128 57.508,94.935 59.027,96.245 59.026 C 96.456 59.026,96.090 58.757,95.431 58.429 C 93.160 57.297,77.821 41.451,76.529 38.902 C 74.886 35.660,77.557 32.947,83.135 32.191 L 85.843 31.824 83.296 31.811 C 81.895 31.804,80.465 31.913,80.118 32.053 M161.954 32.301 C 164.972 33.573,170.654 37.214,170.862 38.010 C 170.942 38.316,170.835 38.957,170.625 39.433 C 170.251 40.277,169.822 40.814,167.542 43.296 C 166.936 43.955,165.295 45.765,163.894 47.318 C 162.494 48.870,161.011 50.499,160.599 50.937 C 158.838 52.808,155.863 56.013,154.708 57.283 C 152.421 59.800,154.569 59.593,131.724 59.498 C 120.497 59.451,113.333 59.455,115.805 59.508 C 151.514 60.263,149.863 60.127,152.105 62.479 L 153.775 64.232 153.582 66.648 C 153.475 67.976,153.260 70.007,153.104 71.161 C 152.615 74.782,152.141 79.181,152.038 81.049 L 151.939 82.846 152.213 81.348 C 152.507 79.742,152.744 77.815,153.688 69.363 C 154.019 66.397,154.450 63.062,154.645 61.953 L 155.000 59.936 163.288 51.720 C 173.402 41.693,173.249 41.795,177.204 42.448 C 179.208 42.779,185.139 50.328,185.225 52.658 C 185.258 53.540,184.578 60.613,183.791 67.566 C 183.381 71.191,182.919 75.371,182.764 76.854 C 182.609 78.337,182.267 81.236,182.004 83.296 C 181.741 85.356,181.413 88.187,181.276 89.588 C 181.138 90.989,180.884 93.079,180.710 94.232 C 180.536 95.386,180.178 98.082,179.915 100.225 C 179.652 102.367,179.161 105.940,178.825 108.165 C 177.726 115.430,178.047 115.137,179.481 107.566 C 179.840 105.670,180.313 103.378,180.531 102.472 C 181.227 99.584,182.019 93.441,182.481 87.341 C 182.619 85.528,182.951 81.820,183.220 79.101 C 183.488 76.382,183.894 72.000,184.122 69.363 C 185.003 59.164,185.182 57.309,185.485 55.243 C 186.220 50.224,181.940 43.758,176.599 41.819 L 174.607 41.096 173.008 41.961 C 171.080 43.005,171.068 42.990,171.140 39.599 C 171.179 37.765,171.074 36.751,170.812 36.436 C 170.331 35.856,161.901 31.754,161.237 31.777 C 160.969 31.786,161.291 32.022,161.954 32.301 M227.039 40.524 C 226.650 41.060,225.733 42.304,225.001 43.289 C 222.635 46.474,222.205 47.488,221.887 50.637 C 221.682 52.657,221.804 52.384,222.488 49.288 C 223.045 46.768,223.303 46.227,224.992 44.045 C 228.088 40.043,228.406 39.979,231.997 42.625 C 237.987 47.040,250.137 59.070,250.750 61.194 C 251.030 62.165,251.032 62.166,251.059 61.333 C 251.132 59.078,236.030 44.266,229.887 40.566 C 227.829 39.327,227.907 39.329,227.039 40.524 M339.056 42.976 C 337.765 43.451,337.286 43.886,328.296 52.734 C 319.944 60.956,319.905 61.014,319.121 66.517 C 318.968 67.588,318.422 71.275,317.907 74.711 C 317.392 78.146,317.015 81.180,317.068 81.452 C 317.122 81.725,317.471 79.858,317.845 77.303 C 318.585 72.241,318.750 71.272,319.865 65.468 C 320.820 60.499,321.039 60.176,328.304 53.018 C 340.004 41.490,341.385 40.995,346.885 46.355 C 350.945 50.311,351.235 51.391,350.323 59.176 C 350.111 60.989,349.807 63.685,349.648 65.169 C 349.488 66.652,349.157 69.618,348.910 71.760 C 348.664 73.903,348.316 76.936,348.138 78.502 C 347.959 80.067,347.681 82.292,347.519 83.446 C 347.358 84.599,347.107 86.622,346.963 87.940 C 346.819 89.258,346.429 92.494,346.097 95.131 C 345.765 97.768,345.343 101.139,345.160 102.622 C 344.978 104.105,344.639 106.667,344.408 108.315 C 344.176 109.963,343.907 112.187,343.809 113.258 C 343.588 115.690,343.080 119.542,342.897 120.182 C 342.692 120.895,329.439 130.037,328.609 130.037 C 328.442 130.037,327.616 129.453,326.774 128.738 C 325.932 128.024,324.855 127.188,324.381 126.881 L 323.518 126.322 323.987 127.228 C 324.244 127.726,324.666 128.309,324.924 128.523 C 325.554 129.046,325.515 130.004,324.794 131.685 C 323.776 134.060,323.884 134.257,325.918 133.740 C 331.040 132.439,329.341 131.715,338.421 139.067 C 338.754 139.336,339.982 140.369,341.151 141.362 L 343.276 143.167 343.047 145.067 C 342.922 146.111,342.600 149.056,342.332 151.610 C 341.817 156.513,341.231 161.692,340.519 167.640 C 340.282 169.618,339.951 172.449,339.784 173.933 C 338.581 184.623,338.279 187.195,337.653 192.060 C 337.473 193.461,337.209 195.685,337.066 197.004 C 336.923 198.322,336.594 201.086,336.335 203.146 C 336.076 205.206,335.738 207.903,335.584 209.139 C 334.609 216.982,334.254 218.581,333.016 220.717 C 331.029 224.147,325.306 226.599,323.088 224.972 C 321.923 224.117,318.445 221.090,315.805 218.631 C 310.374 213.573,310.083 213.319,312.502 215.743 C 318.824 222.077,323.540 226.217,324.432 226.217 C 325.407 226.217,327.829 225.433,329.959 224.428 C 332.668 223.149,335.369 217.636,335.909 212.285 C 336.225 209.150,336.575 206.034,337.222 200.599 C 337.477 198.457,337.816 195.393,337.974 193.792 C 338.132 192.190,338.331 190.572,338.416 190.196 C 338.501 189.820,338.705 188.165,338.868 186.517 C 339.031 184.869,339.440 181.161,339.775 178.277 C 340.111 175.393,340.579 171.348,340.815 169.288 C 341.796 160.714,343.443 146.269,343.587 144.970 C 343.791 143.125,343.787 143.119,337.976 138.292 C 330.317 131.931,330.425 132.031,330.639 131.536 C 330.745 131.288,331.774 130.277,332.925 129.288 C 334.076 128.300,335.245 127.281,335.524 127.025 C 336.563 126.071,339.983 123.234,341.657 121.939 C 343.660 120.389,343.755 120.139,344.276 115.056 C 344.812 109.830,346.758 93.314,347.560 87.191 C 347.722 85.955,348.058 83.258,348.306 81.199 C 348.555 79.139,349.036 75.228,349.375 72.509 C 349.714 69.790,350.118 66.554,350.272 65.318 C 350.426 64.082,350.755 61.993,351.004 60.674 C 352.355 53.500,352.235 52.496,349.525 48.366 C 348.976 47.529,348.175 46.150,347.744 45.300 C 347.314 44.451,346.659 43.564,346.290 43.329 C 345.266 42.679,340.496 42.446,339.056 42.976 M221.260 53.769 C 221.145 54.533,221.119 55.226,221.201 55.309 C 221.284 55.391,221.445 54.833,221.559 54.069 C 221.674 53.304,221.700 52.612,221.618 52.529 C 221.536 52.447,221.374 53.005,221.260 53.769 M220.661 57.964 C 220.546 58.728,220.520 59.421,220.602 59.503 C 220.684 59.586,220.846 59.028,220.960 58.264 C 221.075 57.499,221.101 56.807,221.019 56.724 C 220.936 56.642,220.775 57.200,220.661 57.964 M98.363 59.248 C 99.317 59.308,100.800 59.307,101.659 59.247 C 102.518 59.186,101.738 59.138,99.925 59.138 C 98.112 59.139,97.409 59.188,98.363 59.248 M219.946 62.894 C 219.729 64.354,219.614 65.732,219.690 65.958 C 219.765 66.183,220.002 65.048,220.215 63.436 C 220.429 61.823,220.544 60.445,220.472 60.372 C 220.399 60.299,220.162 61.434,219.946 62.894 M250.554 70.712 C 250.196 76.754,249.966 79.395,249.290 85.243 C 248.926 88.391,248.101 95.151,247.918 96.479 C 247.558 99.098,246.805 105.227,246.593 107.266 C 246.464 108.502,246.202 110.559,246.010 111.838 C 245.817 113.116,245.743 114.296,245.844 114.459 C 245.964 114.653,256.987 114.757,277.451 114.757 C 298.624 114.757,309.150 114.859,309.718 115.071 C 310.635 115.412,315.593 118.660,315.755 119.026 C 315.810 119.150,315.984 119.251,316.140 119.251 C 316.554 119.251,316.016 118.418,314.592 116.854 C 312.520 114.579,312.444 114.309,312.956 111.102 C 313.578 107.213,314.607 99.688,314.607 99.027 C 314.607 97.725,314.328 99.010,313.729 103.071 C 312.995 108.051,312.524 110.486,312.150 111.236 C 311.904 111.730,310.283 111.760,284.438 111.760 L 256.987 111.760 255.450 110.187 C 254.604 109.322,253.059 107.670,252.017 106.517 L 250.121 104.419 250.294 91.685 C 250.389 84.682,250.614 76.727,250.795 74.007 C 250.975 71.288,251.081 67.985,251.030 66.667 C 250.961 64.897,250.836 65.955,250.554 70.712 M219.361 67.127 C 219.207 67.839,216.930 87.057,216.344 92.584 C 215.946 96.342,215.529 101.155,215.124 106.667 C 214.961 108.891,214.727 111.723,214.605 112.959 C 214.243 116.608,214.503 118.023,215.790 119.414 C 216.397 120.070,217.588 121.482,218.438 122.551 C 219.287 123.620,220.812 125.313,221.826 126.313 C 223.728 128.188,226.807 132.957,226.829 134.062 C 226.859 135.564,228.017 136.725,234.311 141.564 L 240.749 146.514 246.142 146.460 L 251.536 146.406 246.442 146.237 C 243.640 146.144,241.146 145.941,240.899 145.786 C 240.084 145.275,228.711 136.058,228.332 135.602 C 228.072 135.288,227.964 133.794,227.970 130.609 L 227.978 126.063 225.110 126.273 L 222.242 126.484 220.831 124.981 C 219.363 123.417,216.547 119.362,215.397 117.155 L 214.732 115.880 215.399 108.053 C 216.240 98.198,216.844 92.134,217.985 82.097 C 218.238 79.873,218.563 76.906,218.707 75.506 C 218.851 74.105,219.129 71.863,219.326 70.524 C 219.523 69.185,219.619 67.836,219.539 67.528 C 219.460 67.219,219.380 67.039,219.361 67.127 M316.543 83.734 C 316.427 84.662,316.405 85.493,316.493 85.582 C 316.582 85.671,316.750 84.984,316.865 84.056 C 316.981 83.129,317.004 82.297,316.915 82.208 C 316.826 82.120,316.659 82.806,316.543 83.734 M151.538 84.944 C 151.422 85.768,151.259 87.386,151.177 88.539 C 151.038 90.476,151.061 90.419,151.473 87.790 C 151.719 86.225,151.881 84.607,151.835 84.195 C 151.783 83.743,151.665 84.041,151.538 84.944 M315.826 88.661 C 315.603 90.168,315.492 91.472,315.579 91.559 C 315.778 91.758,316.506 86.745,316.347 86.270 C 316.284 86.079,316.049 87.155,315.826 88.661 M150.562 93.184 C 150.445 94.193,150.416 95.085,150.499 95.168 C 150.581 95.250,150.744 94.492,150.861 93.483 C 150.979 92.474,151.007 91.581,150.925 91.499 C 150.842 91.416,150.679 92.175,150.562 93.184 M314.906 94.981 C 314.688 96.631,314.577 98.048,314.659 98.130 C 314.742 98.212,314.982 96.924,315.193 95.268 C 315.404 93.611,315.515 92.194,315.440 92.119 C 315.365 92.044,315.125 93.332,314.906 94.981 M149.973 98.737 C 149.856 99.828,149.823 100.784,149.900 100.861 C 149.977 100.938,150.135 100.108,150.252 99.016 C 150.369 97.925,150.402 96.969,150.325 96.892 C 150.248 96.815,150.089 97.645,149.973 98.737 M149.075 106.528 C 148.959 107.456,148.927 108.277,149.003 108.354 C 149.079 108.430,149.236 107.733,149.352 106.805 C 149.468 105.877,149.500 105.056,149.424 104.980 C 149.348 104.904,149.191 105.601,149.075 106.528 M148.132 110.135 C 147.034 111.632,146.402 111.760,140.165 111.758 C 136.984 111.757,129.056 111.900,122.547 112.075 C 116.037 112.251,104.509 112.492,96.929 112.611 C 81.231 112.858,82.973 112.540,78.652 115.948 C 68.866 123.665,69.110 123.460,67.472 125.356 C 66.563 126.409,66.519 126.547,66.948 127.021 C 67.966 128.146,67.150 129.196,64.944 129.599 C 63.676 129.831,63.493 130.198,64.494 130.501 C 65.073 130.676,68.174 132.799,68.614 133.321 C 68.697 133.419,69.370 133.967,70.111 134.540 C 71.768 135.820,72.705 136.597,73.531 137.378 C 73.879 137.708,75.156 138.781,76.367 139.762 C 80.542 143.145,81.195 143.880,81.049 145.039 C 80.978 145.605,80.784 147.146,80.618 148.464 C 79.346 158.568,78.449 166.881,76.528 186.367 C 76.114 190.569,75.669 195.154,75.540 196.554 C 75.264 199.549,74.832 200.497,73.015 202.105 C 72.274 202.760,70.402 204.509,68.856 205.993 C 56.486 217.857,55.804 218.401,53.281 218.416 C 50.573 218.433,48.204 215.349,45.595 208.408 L 44.575 205.693 44.922 202.547 C 45.112 200.816,45.395 198.457,45.550 197.303 C 45.705 196.150,46.041 193.318,46.298 191.011 C 46.851 186.042,47.763 178.399,48.425 173.184 C 49.170 167.313,49.641 163.552,50.321 158.052 C 50.667 155.251,51.070 152.217,51.216 151.311 C 51.361 150.404,51.641 148.382,51.838 146.816 C 52.228 143.706,52.622 141.093,52.877 139.925 C 53.012 139.303,52.967 139.332,52.610 140.093 C 52.257 140.844,50.888 150.114,50.178 156.554 C 50.087 157.378,49.879 158.929,49.717 160.000 C 49.554 161.071,48.887 166.397,48.235 171.835 C 47.077 181.489,46.851 183.335,45.993 190.112 C 45.764 191.925,45.433 194.622,45.258 196.105 C 45.082 197.588,44.740 200.334,44.496 202.206 L 44.053 205.611 44.833 207.599 C 47.231 213.713,49.849 217.889,51.984 219.004 C 53.611 219.854,54.109 219.748,57.473 217.833 C 60.669 216.014,61.939 216.382,59.487 218.417 C 58.763 219.018,57.228 221.393,57.228 221.912 C 57.228 223.107,60.810 226.232,64.821 228.537 C 65.330 228.829,74.523 228.893,107.717 228.836 L 149.965 228.764 153.260 227.083 C 155.459 225.960,156.588 225.213,156.656 224.836 C 156.751 224.308,156.731 224.304,156.357 224.785 C 156.136 225.068,154.742 225.872,153.258 226.572 L 150.562 227.844 140.524 228.046 C 119.873 228.462,78.771 228.349,72.011 227.859 C 61.134 227.069,56.574 224.329,58.951 220.012 C 59.578 218.874,72.690 204.629,75.219 202.339 C 75.609 201.986,80.601 201.924,107.109 201.941 L 138.538 201.961 139.606 202.762 C 140.193 203.203,140.742 203.655,140.824 203.766 C 140.906 203.877,142.727 205.836,144.869 208.119 C 149.343 212.888,151.257 214.968,152.146 216.030 C 152.491 216.442,153.121 217.184,153.546 217.678 C 154.869 219.217,155.849 220.747,156.271 221.932 L 156.678 223.071 156.691 221.985 C 156.724 219.240,156.843 219.388,145.400 207.865 L 139.226 201.648 108.789 201.644 C 92.049 201.642,78.049 201.558,77.678 201.459 L 77.004 201.278 77.009 194.347 C 77.012 190.535,77.151 186.135,77.318 184.569 C 77.485 183.004,77.748 180.172,77.902 178.277 C 78.057 176.382,78.396 172.944,78.655 170.637 C 78.914 168.330,79.248 165.363,79.396 164.045 C 79.545 162.727,79.883 160.097,80.149 158.202 C 80.415 156.307,80.755 153.849,80.906 152.739 C 81.431 148.885,83.326 142.537,84.240 141.573 C 84.424 141.379,95.072 141.219,114.397 141.121 L 144.270 140.968 112.959 140.894 C 92.289 140.846,81.264 140.714,80.518 140.507 C 79.807 140.309,77.961 139.005,75.536 136.988 C 73.417 135.225,70.802 133.059,69.725 132.175 C 67.188 130.091,66.924 128.764,68.391 125.457 C 69.181 123.674,78.635 115.952,82.996 113.527 C 84.066 112.932,103.405 112.811,122.097 113.283 C 143.745 113.829,150.412 113.916,150.412 113.655 C 150.412 113.362,148.891 109.363,148.780 109.363 C 148.735 109.363,148.443 109.711,148.132 110.135 M177.447 115.429 C 176.925 116.871,169.970 123.387,168.257 124.038 C 167.340 124.387,164.019 124.188,162.752 123.708 C 162.371 123.564,161.451 123.446,160.709 123.446 C 159.206 123.446,159.192 123.514,160.205 125.901 C 160.743 127.168,160.236 128.046,157.560 130.472 C 156.842 131.124,154.186 133.613,151.657 136.005 C 147.399 140.031,146.956 140.368,145.664 140.549 L 144.270 140.744 145.941 140.784 L 147.613 140.824 150.435 138.237 C 154.263 134.730,156.887 133.034,158.486 133.034 C 160.008 133.034,159.928 133.219,161.761 125.395 C 162.025 124.269,162.717 124.123,164.008 124.921 C 165.419 125.793,168.271 125.186,169.588 123.735 C 169.876 123.417,173.813 120.749,173.994 120.749 C 174.609 120.749,176.273 119.005,176.795 117.813 C 177.134 117.038,177.554 116.114,177.729 115.760 C 177.904 115.405,177.995 114.958,177.930 114.765 C 177.866 114.572,177.649 114.871,177.447 115.429 M61.573 130.337 C 61.354 130.691,61.647 130.691,62.472 130.337 C 63.050 130.089,63.048 130.079,62.415 130.059 C 62.054 130.047,61.675 130.172,61.573 130.337 M57.400 132.067 C 56.223 132.718,55.715 133.265,54.901 134.757 C 53.724 136.913,53.781 137.301,54.976 135.263 C 55.439 134.473,56.538 133.337,57.584 132.567 C 59.636 131.056,59.566 130.868,57.400 132.067 M285.478 145.839 C 286.349 145.900,287.697 145.899,288.474 145.838 C 289.252 145.776,288.539 145.727,286.891 145.727 C 285.243 145.728,284.608 145.779,285.478 145.839 M260.154 146.133 C 260.609 146.201,261.284 146.200,261.652 146.129 C 262.021 146.057,261.648 146.001,260.824 146.003 C 260.000 146.006,259.698 146.064,260.154 146.133 M271.835 146.141 C 273.772 146.194,276.940 146.194,278.876 146.141 C 280.813 146.089,279.228 146.046,275.356 146.046 C 271.483 146.046,269.899 146.089,271.835 146.141 M297.828 146.570 C 298.734 146.725,299.948 146.971,300.524 147.118 C 301.101 147.266,301.940 147.462,302.388 147.554 C 303.867 147.859,303.820 144.283,302.910 187.416 L 302.536 205.094 303.946 207.110 C 304.722 208.219,305.507 209.220,305.691 209.334 C 305.876 209.448,305.666 209.068,305.225 208.491 C 304.099 207.014,303.998 206.123,304.386 201.119 C 304.917 194.291,305.184 191.718,306.692 178.876 C 307.109 175.333,307.577 171.288,307.733 169.888 C 307.890 168.487,308.222 165.723,308.471 163.745 C 308.721 161.768,309.055 158.869,309.214 157.303 C 309.373 155.738,309.636 153.513,309.798 152.360 C 309.960 151.206,310.130 149.386,310.177 148.315 L 310.262 146.367 303.221 146.329 C 297.981 146.300,296.601 146.362,297.828 146.570 " stroke="none" fill="#5a2706" fill-rule="evenodd"></path><path id="path4" d="M83.135 32.191 C 77.609 32.940,74.885 35.666,76.496 38.836 C 77.503 40.816,93.775 58.110,93.782 57.206 C 93.782 57.111,91.812 55.089,89.403 52.711 C 80.010 43.444,76.105 38.762,76.105 36.770 C 76.105 34.929,79.578 32.976,83.765 32.463 C 87.466 32.010,160.766 31.987,161.948 32.439 C 162.277 32.565,162.142 32.470,161.648 32.228 C 160.432 31.632,87.512 31.598,83.135 32.191 M162.996 32.974 C 163.777 33.506,165.094 34.178,165.094 34.045 C 165.094 33.879,163.026 32.658,162.754 32.664 C 162.640 32.666,162.749 32.806,162.996 32.974 M165.393 34.275 C 165.393 34.351,166.207 34.908,167.201 35.512 C 168.195 36.116,169.409 36.946,169.898 37.358 C 170.387 37.769,170.787 37.969,170.787 37.802 C 170.787 37.636,169.876 36.900,168.764 36.167 C 166.552 34.710,165.393 34.060,165.393 34.275 M170.309 39.531 C 170.049 40.092,163.140 47.849,158.416 52.884 C 157.179 54.202,156.204 55.321,156.250 55.371 C 156.323 55.448,157.379 54.372,160.599 50.939 C 161.011 50.500,162.494 48.870,163.894 47.318 C 165.295 45.765,166.936 43.955,167.541 43.296 C 170.064 40.550,170.978 39.342,170.724 39.089 C 170.646 39.010,170.459 39.209,170.309 39.531 M226.934 41.723 C 224.955 43.867,222.921 46.744,222.921 47.401 C 222.921 47.610,223.204 47.255,223.548 46.611 C 224.333 45.147,227.242 41.479,227.942 41.072 C 228.229 40.904,228.322 40.763,228.149 40.758 C 227.975 40.753,227.428 41.187,226.934 41.723 M229.144 41.060 C 231.396 41.964,238.177 47.809,244.567 54.353 C 250.929 60.866,250.609 60.279,250.582 65.419 L 250.559 69.663 250.811 66.067 C 250.972 63.774,250.954 62.062,250.761 61.340 C 249.966 58.361,231.228 40.681,228.958 40.768 C 228.619 40.781,228.678 40.873,229.144 41.060 M172.604 42.877 C 170.750 44.007,154.902 59.961,154.947 60.651 C 154.986 61.239,154.995 61.237,155.116 60.613 C 155.234 60.005,171.614 43.713,172.814 43.010 C 173.100 42.843,174.142 42.623,175.131 42.522 L 176.929 42.339 175.281 42.294 C 174.078 42.261,173.355 42.419,172.604 42.877 M177.528 42.762 C 178.686 43.043,180.151 44.444,181.498 46.556 C 183.012 48.931,183.855 49.951,182.765 48.090 C 180.729 44.612,178.736 42.513,177.535 42.582 C 176.934 42.616,176.934 42.618,177.528 42.762 M338.820 43.824 C 334.668 45.805,320.860 59.934,320.449 62.622 C 320.313 63.511,320.357 63.462,320.737 62.301 C 321.453 60.114,327.641 53.478,335.308 46.674 C 338.849 43.532,341.209 42.778,343.607 44.022 C 345.509 45.009,349.966 49.881,350.342 51.386 C 350.484 51.950,350.494 51.948,350.527 51.341 C 350.602 49.958,345.994 44.935,343.461 43.637 C 342.142 42.962,340.488 43.028,338.820 43.824 M350.652 53.633 C 350.652 54.539,350.708 54.910,350.776 54.457 C 350.845 54.004,350.845 53.262,350.776 52.809 C 350.708 52.356,350.652 52.727,350.652 53.633 M184.665 57.228 C 184.665 58.300,184.720 58.738,184.786 58.202 C 184.853 57.667,184.853 56.790,184.786 56.255 C 184.720 55.719,184.665 56.157,184.665 57.228 M221.193 56.330 C 221.193 56.906,221.255 57.142,221.330 56.854 C 221.405 56.566,221.405 56.094,221.330 55.805 C 221.255 55.517,221.193 55.753,221.193 56.330 M350.139 57.704 C 350.025 58.964,349.993 60.056,350.069 60.132 C 350.145 60.207,350.303 59.242,350.421 57.986 C 350.538 56.731,350.570 55.638,350.490 55.559 C 350.411 55.480,350.253 56.445,350.139 57.704 M154.148 57.561 C 153.164 58.568,152.629 59.218,152.959 59.006 C 153.563 58.618,156.298 55.730,156.063 55.730 C 155.993 55.730,155.132 56.554,154.148 57.561 M94.082 57.455 C 94.082 58.927,95.986 59.111,112.022 59.191 L 127.191 59.267 112.060 59.028 C 96.740 58.785,95.823 58.711,94.607 57.611 C 94.319 57.349,94.082 57.279,94.082 57.455 M143.911 59.549 C 145.526 59.603,148.088 59.603,149.604 59.549 C 151.119 59.495,149.798 59.450,146.667 59.451 C 143.536 59.451,142.295 59.495,143.911 59.549 M154.496 62.349 C 154.392 62.870,154.324 63.717,154.344 64.232 C 154.365 64.790,154.485 64.449,154.639 63.392 C 154.915 61.501,154.814 60.763,154.496 62.349 M349.745 62.921 C 349.745 63.663,349.803 63.966,349.874 63.596 C 349.946 63.225,349.946 62.618,349.874 62.247 C 349.803 61.876,349.745 62.180,349.745 62.921 M184.040 63.820 C 184.040 64.397,184.101 64.633,184.177 64.345 C 184.252 64.056,184.252 63.584,184.177 63.296 C 184.101 63.007,184.040 63.243,184.040 63.820 M183.746 66.367 C 183.749 67.026,183.811 67.261,183.882 66.888 C 183.954 66.515,183.951 65.976,183.876 65.689 C 183.801 65.403,183.743 65.708,183.746 66.367 M154.077 66.517 C 154.077 67.094,154.139 67.330,154.214 67.041 C 154.289 66.753,154.289 66.281,154.214 65.993 C 154.139 65.704,154.077 65.940,154.077 66.517 M319.455 67.253 C 319.260 68.221,319.114 69.295,319.129 69.638 C 319.145 69.981,319.346 69.318,319.576 68.165 C 319.806 67.011,319.953 65.938,319.902 65.780 C 319.850 65.622,319.649 66.285,319.455 67.253 M219.695 67.116 C 219.695 67.693,219.757 67.929,219.832 67.640 C 219.907 67.352,219.907 66.880,219.832 66.592 C 219.757 66.303,219.695 66.539,219.695 67.116 M349.139 68.165 C 349.143 68.824,349.204 69.058,349.276 68.686 C 349.347 68.313,349.345 67.774,349.270 67.487 C 349.195 67.201,349.136 67.506,349.139 68.165 M153.783 69.064 C 153.787 69.723,153.848 69.957,153.920 69.585 C 153.991 69.212,153.989 68.672,153.914 68.386 C 153.839 68.100,153.780 68.404,153.783 69.064 M183.440 69.213 C 183.440 69.790,183.502 70.026,183.577 69.738 C 183.653 69.449,183.653 68.978,183.577 68.689 C 183.502 68.401,183.440 68.637,183.440 69.213 M219.395 70.412 C 219.395 70.989,219.457 71.225,219.532 70.936 C 219.608 70.648,219.608 70.176,219.532 69.888 C 219.457 69.599,219.395 69.835,219.395 70.412 M348.840 70.861 C 348.843 71.521,348.904 71.755,348.976 71.382 C 349.048 71.010,349.045 70.470,348.970 70.184 C 348.895 69.897,348.836 70.202,348.840 70.861 M153.478 71.610 C 153.478 72.187,153.539 72.423,153.615 72.135 C 153.690 71.846,153.690 71.375,153.615 71.086 C 153.539 70.798,153.478 71.034,153.478 71.610 M250.283 72.509 C 250.283 73.581,250.338 74.019,250.404 73.483 C 250.470 72.948,250.470 72.071,250.404 71.536 C 250.338 71.000,250.283 71.438,250.283 72.509 M318.703 71.578 C 318.592 72.131,318.517 72.871,318.535 73.221 C 318.553 73.571,318.687 73.251,318.833 72.509 C 318.979 71.768,319.055 71.028,319.001 70.866 C 318.948 70.704,318.814 71.024,318.703 71.578 M348.534 73.109 C 348.534 73.685,348.596 73.921,348.671 73.633 C 348.746 73.345,348.746 72.873,348.671 72.584 C 348.596 72.296,348.534 72.532,348.534 73.109 M218.796 74.607 C 218.796 75.184,218.858 75.419,218.933 75.131 C 219.008 74.843,219.008 74.371,218.933 74.082 C 218.858 73.794,218.796 74.030,218.796 74.607 M318.064 75.667 C 317.948 76.595,317.915 77.416,317.991 77.492 C 318.068 77.568,318.225 76.871,318.341 75.944 C 318.456 75.016,318.489 74.194,318.413 74.118 C 318.337 74.042,318.180 74.739,318.064 75.667 M348.246 76.105 C 348.246 76.846,348.305 77.150,348.376 76.779 C 348.448 76.408,348.448 75.801,348.376 75.431 C 348.305 75.060,348.246 75.363,348.246 76.105 M152.879 76.404 C 152.879 76.981,152.940 77.217,153.016 76.929 C 153.091 76.640,153.091 76.169,153.016 75.880 C 152.940 75.592,152.879 75.828,152.879 76.404 M249.969 77.004 C 249.969 77.745,250.028 78.049,250.099 77.678 C 250.171 77.307,250.171 76.700,250.099 76.330 C 250.028 75.959,249.969 76.262,249.969 77.004 M182.541 77.603 C 182.541 78.180,182.603 78.416,182.678 78.127 C 182.754 77.839,182.754 77.367,182.678 77.079 C 182.603 76.790,182.541 77.026,182.541 77.603 M317.673 78.801 C 317.673 79.378,317.734 79.614,317.810 79.326 C 317.885 79.037,317.885 78.566,317.810 78.277 C 317.734 77.989,317.673 78.225,317.673 78.801 M152.579 79.401 C 152.579 79.978,152.641 80.213,152.716 79.925 C 152.791 79.637,152.791 79.165,152.716 78.876 C 152.641 78.588,152.579 78.824,152.579 79.401 M249.658 79.700 C 249.658 80.277,249.719 80.513,249.795 80.225 C 249.870 79.936,249.870 79.464,249.795 79.176 C 249.719 78.888,249.658 79.124,249.658 79.700 M347.647 81.199 C 347.647 81.940,347.706 82.243,347.777 81.873 C 347.848 81.502,347.848 80.895,347.777 80.524 C 347.706 80.154,347.647 80.457,347.647 81.199 M152.279 81.498 C 152.279 82.075,152.341 82.311,152.416 82.022 C 152.492 81.734,152.492 81.262,152.416 80.974 C 152.341 80.685,152.279 80.921,152.279 81.498 M181.942 82.397 C 181.942 82.974,182.004 83.210,182.079 82.921 C 182.155 82.633,182.155 82.161,182.079 81.873 C 182.004 81.584,181.942 81.820,181.942 82.397 M249.337 82.547 C 249.307 83.206,249.218 84.285,249.140 84.944 L 248.998 86.142 249.305 84.944 C 249.474 84.285,249.563 83.206,249.503 82.547 L 249.393 81.348 249.337 82.547 M317.073 82.697 C 317.073 83.273,317.135 83.509,317.210 83.221 C 317.286 82.933,317.286 82.461,317.210 82.172 C 317.135 81.884,317.073 82.120,317.073 82.697 M217.897 82.996 C 217.897 83.573,217.959 83.809,218.034 83.521 C 218.110 83.232,218.110 82.760,218.034 82.472 C 217.959 82.184,217.897 82.419,217.897 82.996 M151.986 83.745 C 151.989 84.404,152.050 84.639,152.122 84.266 C 152.194 83.893,152.191 83.354,152.116 83.068 C 152.041 82.781,151.982 83.086,151.986 83.745 M347.335 83.596 C 347.335 84.172,347.397 84.408,347.472 84.120 C 347.548 83.831,347.548 83.360,347.472 83.071 C 347.397 82.783,347.335 83.019,347.335 83.596 M316.554 85.693 C 316.438 86.538,316.406 87.293,316.484 87.370 C 316.561 87.447,316.716 86.816,316.829 85.968 C 316.942 85.119,316.973 84.364,316.900 84.290 C 316.826 84.217,316.671 84.848,316.554 85.693 M181.437 85.856 C 181.322 86.621,181.290 87.307,181.365 87.382 C 181.440 87.457,181.595 86.893,181.709 86.129 C 181.824 85.364,181.856 84.678,181.781 84.603 C 181.707 84.528,181.551 85.092,181.437 85.856 M248.448 89.852 C 248.239 91.727,248.124 93.318,248.193 93.387 C 248.385 93.579,249.080 87.722,248.946 87.041 C 248.881 86.712,248.657 87.976,248.448 89.852 M217.298 88.090 C 217.298 88.667,217.360 88.903,217.435 88.614 C 217.510 88.326,217.510 87.854,217.435 87.566 C 217.360 87.277,217.298 87.513,217.298 88.090 M346.748 88.390 C 346.748 89.131,346.807 89.434,346.878 89.064 C 346.950 88.693,346.950 88.086,346.878 87.715 C 346.807 87.345,346.748 87.648,346.748 88.390 M151.380 88.989 C 151.380 89.566,151.442 89.801,151.517 89.513 C 151.593 89.225,151.593 88.753,151.517 88.464 C 151.442 88.176,151.380 88.412,151.380 88.989 M316.174 88.989 C 316.174 89.566,316.236 89.801,316.311 89.513 C 316.387 89.225,316.387 88.753,316.311 88.464 C 316.236 88.176,316.174 88.412,316.174 88.989 M181.049 90.337 C 181.053 90.996,181.114 91.231,181.186 90.858 C 181.257 90.485,181.255 89.946,181.180 89.659 C 181.105 89.373,181.046 89.678,181.049 90.337 M315.644 91.824 C 315.528 92.751,315.501 93.578,315.583 93.660 C 315.665 93.743,315.828 93.051,315.944 92.123 C 316.059 91.196,316.087 90.369,316.004 90.287 C 315.922 90.204,315.760 90.896,315.644 91.824 M151.093 91.685 C 151.093 92.427,151.151 92.730,151.223 92.360 C 151.294 91.989,151.294 91.382,151.223 91.011 C 151.151 90.640,151.093 90.944,151.093 91.685 M346.143 93.034 C 346.146 93.693,346.208 93.927,346.279 93.555 C 346.351 93.182,346.348 92.643,346.273 92.356 C 346.198 92.070,346.140 92.375,346.143 93.034 M216.699 93.483 C 216.699 94.060,216.760 94.296,216.836 94.007 C 216.911 93.719,216.911 93.247,216.836 92.959 C 216.760 92.670,216.699 92.906,216.699 93.483 M315.276 94.981 C 315.276 95.558,315.337 95.794,315.413 95.506 C 315.488 95.217,315.488 94.745,315.413 94.457 C 315.337 94.169,315.276 94.404,315.276 94.981 M247.671 96.136 C 247.551 97.184,247.518 98.105,247.597 98.184 C 247.796 98.383,248.185 95.115,248.020 94.628 C 247.947 94.410,247.790 95.089,247.671 96.136 M345.837 95.581 C 345.837 96.157,345.899 96.393,345.974 96.105 C 346.050 95.816,346.050 95.345,345.974 95.056 C 345.899 94.768,345.837 95.004,345.837 95.581 M150.494 96.479 C 150.494 97.221,150.552 97.524,150.623 97.154 C 150.695 96.783,150.695 96.176,150.623 95.805 C 150.552 95.434,150.494 95.738,150.494 96.479 M216.405 97.228 C 216.408 97.888,216.470 98.122,216.542 97.749 C 216.613 97.377,216.610 96.837,216.535 96.551 C 216.460 96.264,216.402 96.569,216.405 97.228 M314.976 97.079 C 314.976 97.655,315.038 97.891,315.113 97.603 C 315.188 97.315,315.188 96.843,315.113 96.554 C 315.038 96.266,314.976 96.502,314.976 97.079 M179.925 98.277 C 179.809 99.122,179.777 99.877,179.854 99.954 C 179.932 100.032,180.087 99.401,180.200 98.552 C 180.312 97.703,180.344 96.948,180.270 96.875 C 180.197 96.801,180.041 97.432,179.925 98.277 M314.682 99.326 C 314.686 99.985,314.747 100.219,314.819 99.847 C 314.890 99.474,314.888 98.935,314.813 98.648 C 314.738 98.362,314.679 98.667,314.682 99.326 M247.277 99.925 C 247.279 100.749,247.337 101.051,247.406 100.595 C 247.475 100.140,247.473 99.466,247.402 99.097 C 247.331 98.728,247.274 99.101,247.277 99.925 M149.997 100.559 C 149.887 101.493,149.857 102.317,149.930 102.390 C 150.003 102.463,150.158 101.763,150.274 100.835 C 150.390 99.908,150.420 99.084,150.341 99.005 C 150.261 98.926,150.107 99.625,149.997 100.559 M345.244 100.524 C 345.247 101.184,345.309 101.418,345.380 101.045 C 345.452 100.672,345.449 100.133,345.374 99.847 C 345.299 99.560,345.241 99.865,345.244 100.524 M215.806 102.921 C 215.809 103.581,215.871 103.815,215.942 103.442 C 216.014 103.069,216.011 102.530,215.936 102.244 C 215.861 101.957,215.803 102.262,215.806 102.921 M246.776 103.331 C 246.658 104.215,246.626 105.003,246.704 105.081 C 246.904 105.281,247.282 102.595,247.122 102.116 C 247.049 101.900,246.894 102.446,246.776 103.331 M314.083 103.521 C 314.086 104.180,314.148 104.414,314.219 104.041 C 314.291 103.669,314.288 103.129,314.213 102.843 C 314.138 102.556,314.080 102.861,314.083 103.521 M149.606 104.719 C 149.608 105.708,149.664 106.076,149.730 105.538 C 149.797 104.999,149.796 104.190,149.727 103.740 C 149.659 103.290,149.604 103.730,149.606 104.719 M179.252 104.120 C 179.255 104.779,179.316 105.013,179.388 104.641 C 179.460 104.268,179.457 103.729,179.382 103.442 C 179.307 103.156,179.248 103.461,179.252 104.120 M344.645 105.318 C 344.648 105.978,344.710 106.212,344.781 105.839 C 344.853 105.466,344.850 104.927,344.775 104.641 C 344.700 104.354,344.642 104.659,344.645 105.318 M313.777 105.768 C 313.777 106.345,313.839 106.581,313.914 106.292 C 313.990 106.004,313.990 105.532,313.914 105.243 C 313.839 104.955,313.777 105.191,313.777 105.768 M215.512 106.667 C 215.512 107.408,215.571 107.712,215.642 107.341 C 215.714 106.970,215.714 106.363,215.642 105.993 C 215.571 105.622,215.512 105.925,215.512 106.667 M246.220 107.865 C 246.110 108.936,245.869 110.804,245.686 112.017 C 245.503 113.229,245.425 114.407,245.512 114.634 C 245.646 114.982,250.777 115.061,277.667 115.127 L 309.663 115.206 311.262 116.193 C 312.141 116.736,312.775 117.041,312.669 116.871 C 312.564 116.701,311.845 116.189,311.071 115.734 L 309.663 114.906 277.753 114.757 L 245.843 114.607 245.882 113.408 C 245.904 112.749,246.088 111.131,246.290 109.813 C 246.493 108.494,246.606 107.079,246.540 106.667 C 246.475 106.255,246.331 106.794,246.220 107.865 M149.091 108.171 C 148.981 108.999,149.002 109.874,149.137 110.115 C 149.288 110.385,149.405 109.806,149.441 108.610 C 149.509 106.286,149.365 106.105,149.091 108.171 M344.339 107.566 C 344.339 108.142,344.401 108.378,344.476 108.090 C 344.552 107.801,344.552 107.330,344.476 107.041 C 344.401 106.753,344.339 106.989,344.339 107.566 M313.478 107.865 C 313.478 108.442,313.539 108.678,313.615 108.390 C 313.690 108.101,313.690 107.629,313.615 107.341 C 313.539 107.052,313.478 107.288,313.478 107.865 M215.185 110.445 C 215.155 111.122,215.067 112.336,214.989 113.142 L 214.846 114.607 215.144 113.258 C 215.308 112.517,215.396 111.303,215.340 110.562 L 215.239 109.213 215.185 110.445 M313.178 110.262 C 313.178 110.839,313.240 111.075,313.315 110.787 C 313.391 110.498,313.391 110.026,313.315 109.738 C 313.240 109.449,313.178 109.685,313.178 110.262 M178.318 110.262 C 178.291 110.674,178.200 111.348,178.115 111.760 L 177.961 112.509 178.282 111.772 C 178.460 111.366,178.551 110.692,178.486 110.274 L 178.367 109.513 178.318 110.262 M343.511 113.184 C 343.398 114.296,343.146 116.352,342.953 117.753 L 342.601 120.300 340.064 122.200 C 335.076 125.937,334.971 126.203,339.855 122.729 C 341.452 121.593,342.821 120.447,342.897 120.182 C 343.280 118.845,344.108 111.161,343.868 111.161 C 343.786 111.161,343.625 112.071,343.511 113.184 M312.693 112.665 C 312.464 114.097,312.843 114.934,314.592 116.854 C 316.016 118.418,316.554 119.251,316.140 119.251 C 315.984 119.251,315.810 119.150,315.755 119.026 C 315.700 118.903,315.067 118.419,314.348 117.951 C 312.503 116.751,313.053 117.435,315.023 118.792 C 317.523 120.514,317.600 119.949,315.238 117.211 C 314.067 115.854,313.096 114.510,313.080 114.226 C 313.064 113.941,313.074 113.202,313.102 112.584 C 313.171 111.102,312.935 111.149,312.693 112.665 M149.952 112.210 C 150.557 113.800,150.549 113.816,149.019 113.946 L 147.566 114.069 149.064 114.038 C 150.622 114.006,151.149 112.918,150.080 111.937 C 149.811 111.690,149.780 111.756,149.952 112.210 M177.747 113.558 C 177.747 114.135,177.809 114.371,177.884 114.082 C 177.960 113.794,177.960 113.322,177.884 113.034 C 177.809 112.745,177.747 112.981,177.747 113.558 M93.408 113.183 C 97.569 113.230,104.378 113.230,108.539 113.183 C 112.700 113.136,109.296 113.098,100.974 113.098 C 92.652 113.098,89.247 113.136,93.408 113.183 M124.644 113.572 C 127.199 113.686,131.109 113.774,133.333 113.770 L 137.378 113.761 134.532 113.543 C 132.966 113.423,129.056 113.335,125.843 113.346 L 120.000 113.366 124.644 113.572 M81.717 114.318 C 81.102 114.736,80.599 115.142,80.599 115.221 C 80.599 115.300,81.139 115.007,81.798 114.571 C 82.844 113.879,83.198 113.558,82.916 113.558 C 82.872 113.558,82.333 113.900,81.717 114.318 M79.251 116.131 L 78.352 116.903 79.326 116.259 C 79.861 115.905,80.300 115.556,80.300 115.485 C 80.300 115.261,80.173 115.339,79.251 116.131 M175.667 117.461 C 174.973 118.116,174.507 118.652,174.632 118.652 C 174.757 118.652,175.386 118.112,176.030 117.453 C 177.536 115.911,177.304 115.916,175.667 117.461 M77.004 117.660 C 69.208 123.602,67.965 124.992,67.614 128.166 C 67.403 130.067,67.590 130.421,69.725 132.175 C 70.802 133.059,73.417 135.225,75.536 136.988 C 77.961 139.005,79.807 140.309,80.518 140.507 C 81.280 140.718,91.901 140.798,113.109 140.751 L 144.569 140.682 112.509 140.528 C 87.356 140.408,80.306 140.292,79.783 139.994 C 79.417 139.784,76.653 137.572,73.641 135.078 C 70.629 132.583,68.107 130.495,68.036 130.436 C 67.310 129.835,68.478 125.021,69.623 123.899 C 69.967 123.562,75.392 119.180,77.309 117.692 C 77.883 117.247,78.285 116.877,78.202 116.871 C 78.120 116.865,77.581 117.220,77.004 117.660 M172.471 120.524 C 171.078 121.930,171.357 121.730,173.764 119.598 C 174.166 119.242,174.390 118.951,174.262 118.951 C 174.134 118.951,173.328 119.659,172.471 120.524 M219.065 122.834 C 220.733 125.339,222.121 126.445,223.544 126.402 L 224.869 126.362 223.405 126.159 C 221.890 125.949,221.788 125.868,219.375 122.990 C 218.479 121.921,218.447 121.905,219.065 122.834 M169.401 123.019 C 168.887 123.429,167.875 123.880,167.154 124.021 C 166.186 124.211,166.061 124.288,166.676 124.312 C 167.754 124.354,169.285 123.700,170.009 122.888 C 170.750 122.056,170.562 122.097,169.401 123.019 M159.122 123.521 C 159.134 123.727,159.271 124.165,159.426 124.494 C 159.664 124.997,159.684 124.963,159.554 124.287 C 159.407 123.526,159.470 123.474,160.673 123.366 L 161.948 123.251 160.524 123.198 C 159.548 123.163,159.108 123.264,159.122 123.521 M322.426 125.600 C 322.629 125.981,323.335 127.009,323.996 127.886 L 325.197 129.480 324.694 130.882 C 324.034 132.726,324.092 133.201,324.794 131.685 C 325.486 130.190,325.534 129.029,324.924 128.523 C 324.666 128.309,324.244 127.726,323.987 127.228 L 323.518 126.322 324.381 126.881 C 324.855 127.188,325.932 128.024,326.774 128.738 C 327.616 129.453,328.437 130.037,328.600 130.037 C 328.924 130.037,332.551 127.770,333.034 127.266 C 333.419 126.864,332.952 127.127,330.665 128.599 C 328.456 130.021,328.837 130.090,326.082 127.771 C 323.183 125.332,321.866 124.549,322.426 125.600 M159.873 125.693 C 159.980 126.022,160.124 126.494,160.192 126.742 C 160.260 126.989,159.545 128.067,158.602 129.139 C 157.659 130.210,157.331 130.682,157.873 130.187 C 160.211 128.053,160.742 127.100,160.182 126.044 C 159.905 125.521,159.766 125.363,159.873 125.693 M226.427 126.054 L 227.985 126.173 228.103 127.730 L 228.222 129.288 228.193 127.640 L 228.165 125.993 226.517 125.964 L 224.869 125.935 226.427 126.054 M64.744 130.734 C 64.813 130.787,65.341 131.135,65.918 131.508 L 66.966 132.184 66.067 131.412 C 65.573 130.987,65.045 130.639,64.894 130.638 C 64.743 130.637,64.675 130.680,64.744 130.734 M154.450 132.960 C 153.300 134.054,151.187 136.092,149.754 137.489 C 147.546 139.642,146.951 140.062,145.859 140.240 L 144.569 140.449 145.715 140.487 C 146.757 140.521,147.094 140.304,149.460 138.070 C 154.696 133.128,156.719 131.151,156.630 131.062 C 156.581 131.013,155.599 131.867,154.450 132.960 M67.693 132.833 C 68.456 133.674,68.620 133.777,68.605 133.408 C 68.600 133.285,68.229 132.925,67.781 132.608 L 66.966 132.033 67.693 132.833 M56.111 133.708 C 55.273 134.615,53.335 137.877,53.334 138.382 C 53.334 138.605,53.746 137.998,54.250 137.034 C 54.754 136.070,55.569 134.775,56.062 134.157 C 57.052 132.914,57.080 132.658,56.111 133.708 M323.829 133.214 C 323.422 133.842,324.323 134.663,324.970 134.254 C 325.512 133.911,325.507 133.899,324.886 134.029 C 324.387 134.134,324.206 134.012,324.136 133.526 C 324.081 133.141,323.958 133.016,323.829 133.214 M326.891 133.502 C 326.315 133.720,326.063 133.906,326.333 133.916 C 326.602 133.925,327.276 133.736,327.831 133.495 C 329.078 132.953,328.327 132.959,326.891 133.502 M330.787 133.113 C 330.787 133.179,331.360 133.688,332.060 134.245 C 332.760 134.802,333.143 135.020,332.911 134.731 C 332.472 134.185,330.787 132.901,330.787 133.113 M228.050 134.577 C 228.023 135.195,228.397 135.696,229.738 136.836 C 232.635 139.299,239.101 144.462,239.101 144.313 C 239.101 144.177,237.067 142.442,234.309 140.225 C 229.633 136.465,228.451 135.364,228.275 134.601 L 228.086 133.783 228.050 134.577 M70.122 134.743 C 70.127 134.874,70.464 135.224,70.871 135.520 C 71.278 135.816,71.606 135.951,71.601 135.819 C 71.596 135.688,71.259 135.338,70.852 135.042 C 70.445 134.746,70.117 134.611,70.122 134.743 M333.483 135.212 C 333.483 135.288,334.494 136.187,335.730 137.209 C 336.966 138.231,337.975 138.957,337.971 138.822 C 337.968 138.687,337.462 138.208,336.848 137.758 C 336.233 137.308,335.225 136.519,334.607 136.006 C 333.989 135.493,333.483 135.135,333.483 135.212 M72.487 136.728 C 73.250 137.569,73.414 137.672,73.399 137.303 C 73.394 137.180,73.023 136.820,72.575 136.503 L 71.760 135.928 72.487 136.728 M77.287 140.742 C 78.202 141.603,79.057 142.311,79.186 142.315 C 79.316 142.319,78.911 141.892,78.288 141.365 C 75.960 139.401,75.669 139.220,77.287 140.742 M338.277 139.111 C 338.277 139.185,339.288 140.082,340.524 141.104 C 342.769 142.960,342.772 142.965,342.817 144.515 L 342.862 146.067 343.063 144.719 C 343.258 143.418,343.220 143.327,341.960 142.115 C 340.520 140.729,338.277 138.899,338.277 139.111 M52.626 140.887 C 52.525 141.264,52.456 141.910,52.471 142.322 C 52.488 142.763,52.607 142.525,52.761 141.742 C 53.036 140.338,52.939 139.720,52.626 140.887 M52.210 144.270 C 52.214 144.929,52.275 145.163,52.347 144.791 C 52.418 144.418,52.416 143.878,52.341 143.592 C 52.266 143.306,52.207 143.610,52.210 144.270 M240.227 145.243 C 240.615 145.614,241.161 145.909,241.440 145.899 C 241.777 145.886,241.699 145.780,241.205 145.583 C 240.796 145.420,240.250 145.125,239.991 144.928 C 239.733 144.731,239.839 144.873,240.227 145.243 M284.944 145.503 C 286.529 145.705,293.587 145.757,293.099 145.564 C 292.816 145.452,290.697 145.371,288.390 145.384 C 286.082 145.397,284.532 145.451,284.944 145.503 M80.321 148.529 C 80.124 150.142,79.836 152.363,79.682 153.466 C 79.527 154.568,79.415 155.917,79.432 156.462 C 79.449 157.007,79.639 156.105,79.854 154.457 C 80.069 152.809,80.410 150.209,80.612 148.679 C 80.813 147.148,80.910 145.829,80.828 145.747 C 80.746 145.665,80.518 146.917,80.321 148.529 M277.093 145.841 C 278.460 145.897,280.618 145.896,281.887 145.840 C 283.156 145.784,282.037 145.739,279.401 145.739 C 276.764 145.740,275.726 145.785,277.093 145.841 M246.367 146.142 C 248.798 146.192,252.775 146.192,255.206 146.142 C 257.637 146.091,255.648 146.050,250.787 146.050 C 245.925 146.050,243.936 146.091,246.367 146.142 M263.756 146.139 C 264.710 146.199,266.193 146.198,267.052 146.138 C 267.911 146.078,267.131 146.029,265.318 146.030 C 263.506 146.030,262.803 146.080,263.756 146.139 M294.906 146.132 C 295.360 146.201,296.101 146.201,296.554 146.132 C 297.007 146.064,296.637 146.007,295.730 146.007 C 294.824 146.007,294.453 146.064,294.906 146.132 M309.363 146.185 L 310.262 146.382 310.209 148.472 L 310.157 150.562 310.458 148.497 C 310.789 146.228,310.628 145.899,309.213 145.958 C 308.537 145.986,308.552 146.008,309.363 146.185 M342.179 149.904 C 341.976 151.781,341.863 153.573,341.926 153.887 C 341.989 154.200,342.224 152.734,342.448 150.628 C 342.672 148.523,342.785 146.730,342.700 146.646 C 342.616 146.561,342.381 148.027,342.179 149.904 M51.605 148.614 C 51.605 149.191,51.667 149.427,51.742 149.139 C 51.817 148.850,51.817 148.378,51.742 148.090 C 51.667 147.801,51.605 148.037,51.605 148.614 M309.534 154.628 C 309.311 156.536,309.204 158.288,309.297 158.524 C 309.390 158.759,309.476 158.438,309.489 157.810 C 309.502 157.183,309.658 155.737,309.835 154.597 C 310.011 153.457,310.107 152.218,310.048 151.843 C 309.988 151.468,309.757 152.721,309.534 154.628 M51.006 153.109 C 51.006 153.685,51.068 153.921,51.143 153.633 C 51.218 153.345,51.218 152.873,51.143 152.584 C 51.068 152.296,51.006 152.532,51.006 153.109 M50.718 155.506 C 50.718 156.247,50.777 156.551,50.848 156.180 C 50.920 155.809,50.920 155.202,50.848 154.831 C 50.777 154.461,50.718 154.764,50.718 155.506 M341.450 157.180 C 341.336 158.439,341.304 159.531,341.380 159.607 C 341.456 159.683,341.614 158.718,341.732 157.462 C 341.849 156.206,341.881 155.114,341.801 155.035 C 341.722 154.955,341.564 155.921,341.450 157.180 M78.951 160.300 C 78.834 161.473,78.801 162.497,78.879 162.575 C 78.958 162.653,79.116 161.756,79.232 160.581 C 79.348 159.405,79.380 158.382,79.304 158.305 C 79.228 158.229,79.069 159.127,78.951 160.300 M50.107 160.300 C 50.107 160.876,50.169 161.112,50.244 160.824 C 50.319 160.536,50.319 160.064,50.244 159.775 C 50.169 159.487,50.107 159.723,50.107 160.300 M308.757 161.003 C 308.643 161.911,308.610 162.833,308.684 163.050 C 308.757 163.268,308.914 162.589,309.034 161.542 C 309.153 160.494,309.186 159.573,309.107 159.494 C 309.028 159.415,308.870 160.094,308.757 161.003 M341.049 161.049 C 341.053 161.708,341.114 161.942,341.186 161.570 C 341.257 161.197,341.255 160.658,341.180 160.371 C 341.105 160.085,341.046 160.390,341.049 161.049 M49.576 163.734 C 49.461 164.662,49.430 165.485,49.510 165.565 C 49.589 165.644,49.743 164.944,49.853 164.010 C 49.963 163.076,49.993 162.253,49.920 162.180 C 49.847 162.107,49.692 162.806,49.576 163.734 M340.568 165.063 C 340.455 166.281,340.421 167.337,340.492 167.408 C 340.678 167.595,341.064 163.718,340.906 163.244 C 340.834 163.025,340.681 163.844,340.568 165.063 M78.577 164.644 C 78.581 165.303,78.642 165.538,78.714 165.165 C 78.785 164.792,78.783 164.253,78.708 163.967 C 78.633 163.680,78.574 163.985,78.577 164.644 M308.015 167.341 C 307.797 169.237,307.681 170.852,307.758 170.929 C 307.834 171.005,308.075 169.515,308.292 167.617 C 308.508 165.719,308.624 164.105,308.549 164.030 C 308.474 163.954,308.233 165.444,308.015 167.341 M49.214 167.041 C 49.217 167.700,49.279 167.935,49.350 167.562 C 49.422 167.189,49.419 166.650,49.344 166.364 C 49.269 166.077,49.211 166.382,49.214 167.041 M78.284 167.191 C 78.284 167.933,78.342 168.236,78.414 167.865 C 78.485 167.494,78.485 166.888,78.414 166.517 C 78.342 166.146,78.284 166.449,78.284 167.191 M340.150 168.839 C 340.154 169.498,340.215 169.733,340.287 169.360 C 340.358 168.987,340.356 168.448,340.281 168.161 C 340.206 167.875,340.147 168.180,340.150 168.839 M77.978 169.738 C 77.982 170.397,78.043 170.631,78.115 170.259 C 78.186 169.886,78.183 169.347,78.108 169.060 C 78.033 168.774,77.975 169.079,77.978 169.738 M339.857 171.685 C 339.857 172.427,339.915 172.730,339.987 172.360 C 340.058 171.989,340.058 171.382,339.987 171.011 C 339.915 170.640,339.857 170.944,339.857 171.685 M48.615 171.835 C 48.618 172.494,48.680 172.729,48.751 172.356 C 48.823 171.983,48.820 171.444,48.745 171.158 C 48.670 170.871,48.612 171.176,48.615 171.835 M77.689 173.034 C 77.691 173.858,77.749 174.159,77.818 173.704 C 77.887 173.248,77.885 172.574,77.814 172.206 C 77.743 171.837,77.686 172.210,77.689 173.034 M307.485 172.584 C 307.485 173.161,307.547 173.397,307.622 173.109 C 307.698 172.820,307.698 172.348,307.622 172.060 C 307.547 171.772,307.485 172.007,307.485 172.584 M48.309 174.382 C 48.309 174.959,48.371 175.195,48.446 174.906 C 48.522 174.618,48.522 174.146,48.446 173.858 C 48.371 173.569,48.309 173.805,48.309 174.382 M307.198 174.981 C 307.198 175.723,307.256 176.026,307.328 175.655 C 307.399 175.285,307.399 174.678,307.328 174.307 C 307.256 173.936,307.198 174.240,307.198 174.981 M77.389 176.030 C 77.391 176.854,77.450 177.155,77.518 176.700 C 77.587 176.245,77.585 175.570,77.514 175.202 C 77.443 174.833,77.387 175.206,77.389 176.030 M48.022 176.779 C 48.022 177.521,48.080 177.824,48.152 177.453 C 48.223 177.082,48.223 176.476,48.152 176.105 C 48.080 175.734,48.022 176.037,48.022 176.779 M339.262 176.929 C 339.264 177.753,339.322 178.054,339.391 177.599 C 339.460 177.143,339.458 176.469,339.387 176.101 C 339.316 175.732,339.259 176.105,339.262 176.929 M306.710 178.546 C 306.597 179.765,306.563 180.820,306.634 180.891 C 306.821 181.078,307.207 177.201,307.049 176.727 C 306.976 176.508,306.824 177.327,306.710 178.546 M77.073 178.577 C 77.073 179.154,77.135 179.390,77.210 179.101 C 77.286 178.813,77.286 178.341,77.210 178.052 C 77.135 177.764,77.073 178.000,77.073 178.577 M47.716 179.326 C 47.719 179.985,47.781 180.219,47.852 179.847 C 47.924 179.474,47.921 178.935,47.846 178.648 C 47.771 178.362,47.713 178.667,47.716 179.326 M338.952 179.625 C 338.955 180.285,339.017 180.519,339.088 180.146 C 339.160 179.774,339.157 179.234,339.082 178.948 C 339.007 178.661,338.949 178.966,338.952 179.625 M76.794 181.573 C 76.794 182.479,76.850 182.850,76.919 182.397 C 76.987 181.944,76.987 181.202,76.919 180.749 C 76.850 180.296,76.794 180.667,76.794 181.573 M47.410 181.873 C 47.410 182.449,47.472 182.685,47.547 182.397 C 47.623 182.109,47.623 181.637,47.547 181.348 C 47.472 181.060,47.410 181.296,47.410 181.873 M338.646 181.873 C 338.646 182.449,338.708 182.685,338.783 182.397 C 338.859 182.109,338.859 181.637,338.783 181.348 C 338.708 181.060,338.646 181.296,338.646 181.873 M306.299 182.772 C 306.299 183.513,306.357 183.816,306.429 183.446 C 306.500 183.075,306.500 182.468,306.429 182.097 C 306.357 181.727,306.299 182.030,306.299 182.772 M47.111 184.270 C 47.111 184.846,47.172 185.082,47.248 184.794 C 47.323 184.506,47.323 184.034,47.248 183.745 C 47.172 183.457,47.111 183.693,47.111 184.270 M338.363 185.019 C 338.365 185.843,338.423 186.144,338.492 185.689 C 338.561 185.233,338.559 184.559,338.488 184.191 C 338.417 183.822,338.361 184.195,338.363 185.019 M76.480 185.019 C 76.483 185.678,76.545 185.912,76.616 185.540 C 76.688 185.167,76.685 184.628,76.610 184.341 C 76.535 184.055,76.477 184.360,76.480 185.019 M305.758 186.507 C 305.641 187.598,305.613 188.559,305.695 188.641 C 305.777 188.724,305.941 187.898,306.057 186.806 C 306.174 185.715,306.203 184.754,306.120 184.672 C 306.038 184.590,305.875 185.415,305.758 186.507 M46.601 188.024 C 46.483 189.279,46.450 190.370,46.528 190.448 C 46.605 190.525,46.765 189.561,46.883 188.306 C 47.000 187.050,47.033 185.959,46.956 185.882 C 46.878 185.804,46.718 186.768,46.601 188.024 M76.191 188.015 C 76.193 188.839,76.251 189.140,76.320 188.685 C 76.389 188.230,76.387 187.555,76.316 187.187 C 76.245 186.818,76.188 187.191,76.191 188.015 M337.760 189.963 C 337.760 190.704,337.818 191.007,337.889 190.637 C 337.961 190.266,337.961 189.659,337.889 189.288 C 337.818 188.918,337.760 189.221,337.760 189.963 M305.408 190.562 C 305.408 191.468,305.464 191.839,305.533 191.386 C 305.602 190.933,305.602 190.191,305.533 189.738 C 305.464 189.285,305.408 189.655,305.408 190.562 M75.682 192.236 C 75.568 193.495,75.536 194.588,75.612 194.663 C 75.688 194.739,75.846 193.774,75.964 192.518 C 76.082 191.263,76.113 190.170,76.034 190.091 C 75.954 190.012,75.796 190.977,75.682 192.236 M46.218 192.210 C 46.221 192.869,46.283 193.103,46.354 192.731 C 46.426 192.358,46.423 191.819,46.348 191.532 C 46.273 191.246,46.215 191.551,46.218 192.210 M337.448 192.659 C 337.448 193.236,337.509 193.472,337.585 193.184 C 337.660 192.895,337.660 192.423,337.585 192.135 C 337.509 191.846,337.448 192.082,337.448 192.659 M304.866 194.838 C 304.751 196.061,304.712 197.318,304.779 197.632 C 304.846 197.945,305.003 197.008,305.128 195.549 C 305.253 194.089,305.292 192.832,305.214 192.755 C 305.137 192.678,304.980 193.615,304.866 194.838 M45.756 195.356 C 45.272 199.423,45.235 201.353,45.702 198.202 C 45.945 196.554,46.109 194.801,46.066 194.307 C 46.020 193.783,45.891 194.221,45.756 195.356 M75.257 196.704 C 75.225 197.528,75.128 198.539,75.044 198.951 L 74.889 199.700 75.211 198.964 C 75.388 198.558,75.484 197.547,75.425 196.716 L 75.317 195.206 75.257 196.704 M336.855 197.603 C 336.858 198.262,336.919 198.497,336.991 198.124 C 337.063 197.751,337.060 197.212,336.985 196.925 C 336.910 196.639,336.851 196.944,336.855 197.603 M304.264 202.990 C 304.144 204.903,304.112 206.534,304.192 206.614 C 304.272 206.694,304.433 205.192,304.551 203.278 C 304.669 201.363,304.702 199.733,304.623 199.655 C 304.545 199.576,304.383 201.077,304.264 202.990 M74.109 200.524 C 71.134 203.837,56.341 217.425,55.263 217.835 C 54.399 218.163,52.140 218.225,51.400 217.941 C 50.753 217.693,49.367 215.641,47.603 212.318 C 46.806 210.816,46.151 209.708,46.148 209.854 C 46.134 210.505,49.393 216.242,50.366 217.279 C 51.382 218.362,51.542 218.426,53.212 218.416 C 55.813 218.401,56.425 217.915,68.856 205.993 C 70.402 204.509,72.272 202.761,73.012 202.107 C 73.751 201.454,74.484 200.678,74.641 200.385 C 75.028 199.663,74.839 199.712,74.109 200.524 M336.255 202.097 C 336.259 202.757,336.320 202.991,336.392 202.618 C 336.463 202.246,336.461 201.706,336.386 201.420 C 336.311 201.133,336.252 201.438,336.255 202.097 M44.805 203.597 C 44.614 205.377,45.556 209.825,46.024 209.357 C 46.090 209.291,45.869 208.439,45.534 207.465 C 45.043 206.041,44.962 205.296,45.122 203.670 C 45.231 202.558,45.252 201.648,45.167 201.648 C 45.083 201.648,44.920 202.525,44.805 203.597 M72.856 204.753 C 71.264 206.379,69.827 207.862,69.661 208.049 C 69.496 208.236,67.136 210.790,64.418 213.725 C 58.018 220.634,57.487 221.699,59.255 224.094 C 59.843 224.891,63.319 226.823,64.120 226.798 C 64.367 226.790,63.930 226.524,63.149 226.207 C 57.916 224.082,57.457 221.849,61.354 217.474 C 65.913 212.355,75.574 202.247,75.911 202.243 C 89.284 202.083,138.022 202.334,138.643 202.566 C 139.101 202.738,140.686 204.050,142.164 205.484 L 144.853 208.090 142.764 205.839 C 141.614 204.600,140.185 203.221,139.587 202.774 L 138.500 201.961 107.124 201.879 L 75.749 201.798 72.856 204.753 M335.956 204.794 C 335.959 205.453,336.020 205.688,336.092 205.315 C 336.164 204.942,336.161 204.403,336.086 204.116 C 336.011 203.830,335.952 204.135,335.956 204.794 M304.419 207.336 C 304.419 208.101,319.538 222.384,323.057 224.944 C 323.654 225.378,324.367 225.603,325.063 225.577 C 325.834 225.548,325.929 225.503,325.393 225.418 C 323.859 225.177,323.328 225.008,322.942 224.641 C 322.725 224.434,321.333 223.199,319.850 221.898 C 315.030 217.668,306.244 209.280,305.067 207.783 C 304.711 207.331,304.419 207.130,304.419 207.336 M147.798 211.610 C 152.214 216.374,153.284 217.486,152.630 216.636 C 152.317 216.227,151.444 215.216,150.691 214.388 C 149.938 213.561,148.387 211.853,147.245 210.593 C 146.103 209.333,145.057 208.288,144.921 208.271 C 144.785 208.254,146.080 209.757,147.798 211.610 M335.356 209.588 C 335.360 210.247,335.421 210.482,335.493 210.109 C 335.564 209.736,335.562 209.197,335.487 208.910 C 335.412 208.624,335.353 208.929,335.356 209.588 M334.751 214.232 C 334.751 214.809,334.813 215.045,334.888 214.757 C 334.964 214.468,334.964 213.996,334.888 213.708 C 334.813 213.419,334.751 213.655,334.751 214.232 M153.708 218.277 C 154.095 218.689,154.462 219.026,154.523 219.026 C 154.772 219.026,153.537 217.546,153.281 217.538 C 153.129 217.532,153.321 217.865,153.708 218.277 M333.358 219.452 C 332.639 221.335,330.803 223.093,328.302 224.291 C 327.124 224.856,326.328 225.318,326.534 225.318 C 328.892 225.318,335.161 219.405,334.016 218.261 C 333.935 218.180,333.639 218.716,333.358 219.452 M155.461 220.806 C 155.893 221.617,156.292 222.235,156.347 222.180 C 156.490 222.037,155.267 219.698,154.945 219.500 C 154.797 219.408,155.029 219.996,155.461 220.806 M153.109 226.367 C 152.697 226.603,152.494 226.795,152.659 226.795 C 152.824 226.795,153.296 226.603,153.708 226.367 C 154.120 226.132,154.322 225.939,154.157 225.939 C 153.993 225.939,153.521 226.132,153.109 226.367 M65.019 227.095 C 65.266 227.238,66.547 227.433,67.865 227.527 L 70.262 227.698 67.715 227.270 C 64.725 226.767,64.419 226.747,65.019 227.095 M150.861 227.277 C 150.367 227.503,150.165 227.690,150.412 227.691 C 150.659 227.693,151.199 227.501,151.610 227.266 C 152.558 226.724,152.052 226.732,150.861 227.277 M74.607 228.060 C 77.803 228.305,127.491 228.297,140.375 228.049 C 145.648 227.948,132.434 227.865,111.011 227.865 C 89.588 227.865,73.206 227.953,74.607 228.060 " stroke="none" fill="#61421c" fill-rule="evenodd"></path></g></svg>